<?xml version="1.0" encoding="UTF-8" standalone="no"?>
<svg
   xmlns:dc="http://purl.org/dc/elements/1.1/"
   xmlns:cc="http://creativecommons.org/ns#"
   xmlns:rdf="http://www.w3.org/1999/02/22-rdf-syntax-ns#"
   xmlns:svg="http://www.w3.org/2000/svg"
   xmlns="http://www.w3.org/2000/svg"
   viewBox="0 0 410.85568 424.94501"
   height="424.94501"
   width="410.85568"
   xml:space="preserve"
   id="svg2"
   version="1.1"><metadata
     id="metadata8"><rdf:RDF><cc:Work
         rdf:about=""><dc:format>image/svg+xml</dc:format><dc:type
           rdf:resource="http://purl.org/dc/dcmitype/StillImage" /></cc:Work></rdf:RDF></metadata><defs
     id="defs6"><clipPath
       id="clipPath22"
       clipPathUnits="userSpaceOnUse"><path
         id="path20"
         d="M 18.505625,194.14375 H 297.50562 v 108.72 H 18.505625 Z" /></clipPath><clipPath
       id="clipPath32"
       clipPathUnits="userSpaceOnUse"><path
         id="path30"
         d="M 18.505625,194.14375 H 297.50562 v 108.72 H 18.505625 Z" /></clipPath><clipPath
       id="clipPath42"
       clipPathUnits="userSpaceOnUse"><path
         id="path40"
         d="M 18.505625,194.14375 H 297.50562 v 108.72 H 18.505625 Z" /></clipPath><clipPath
       id="clipPath52"
       clipPathUnits="userSpaceOnUse"><path
         id="path50"
         d="M 18.505625,194.14375 H 297.50562 v 108.72 H 18.505625 Z" /></clipPath><clipPath
       id="clipPath62"
       clipPathUnits="userSpaceOnUse"><path
         id="path60"
         d="M 18.505625,194.14375 H 297.50562 v 108.72 H 18.505625 Z" /></clipPath><clipPath
       id="clipPath72"
       clipPathUnits="userSpaceOnUse"><path
         id="path70"
         d="M 18.505625,194.14375 H 297.50562 v 108.72 H 18.505625 Z" /></clipPath><clipPath
       id="clipPath82"
       clipPathUnits="userSpaceOnUse"><path
         id="path80"
         d="M 18.505625,194.14375 H 297.50562 v 108.72 H 18.505625 Z" /></clipPath><clipPath
       id="clipPath92"
       clipPathUnits="userSpaceOnUse"><path
         id="path90"
         d="M 18.505625,194.14375 H 297.50562 v 108.72 H 18.505625 Z" /></clipPath><clipPath
       id="clipPath114"
       clipPathUnits="userSpaceOnUse"><path
         id="path112"
         d="M -1021,-463 H 1794 V 1233 H -1021 Z" /></clipPath><clipPath
       id="clipPath134"
       clipPathUnits="userSpaceOnUse"><path
         id="path132"
         d="M -1021,-463 H 1794 V 1233 H -1021 Z" /></clipPath><clipPath
       id="clipPath262"
       clipPathUnits="userSpaceOnUse"><path
         id="path260"
         d="M 18.505625,31.06375 H 297.50562 v 108.72 H 18.505625 Z" /></clipPath><clipPath
       id="clipPath272"
       clipPathUnits="userSpaceOnUse"><path
         id="path270"
         d="M 18.505625,31.06375 H 297.50562 v 108.72 H 18.505625 Z" /></clipPath><clipPath
       id="clipPath282"
       clipPathUnits="userSpaceOnUse"><path
         id="path280"
         d="M 18.505625,31.06375 H 297.50562 v 108.72 H 18.505625 Z" /></clipPath><clipPath
       id="clipPath292"
       clipPathUnits="userSpaceOnUse"><path
         id="path290"
         d="M 18.505625,31.06375 H 297.50562 v 108.72 H 18.505625 Z" /></clipPath><clipPath
       id="clipPath302"
       clipPathUnits="userSpaceOnUse"><path
         id="path300"
         d="M 18.505625,31.06375 H 297.50562 v 108.72 H 18.505625 Z" /></clipPath><clipPath
       id="clipPath312"
       clipPathUnits="userSpaceOnUse"><path
         id="path310"
         d="M 18.505625,31.06375 H 297.50562 v 108.72 H 18.505625 Z" /></clipPath><clipPath
       id="clipPath322"
       clipPathUnits="userSpaceOnUse"><path
         id="path320"
         d="M 18.505625,31.06375 H 297.50562 v 108.72 H 18.505625 Z" /></clipPath><clipPath
       id="clipPath332"
       clipPathUnits="userSpaceOnUse"><path
         id="path330"
         d="M 18.505625,31.06375 H 297.50562 v 108.72 H 18.505625 Z" /></clipPath><clipPath
       id="clipPath354"
       clipPathUnits="userSpaceOnUse"><path
         id="path352"
         d="M -1021,-463 H 1794 V 1233 H -1021 Z" /></clipPath><clipPath
       id="clipPath374"
       clipPathUnits="userSpaceOnUse"><path
         id="path372"
         d="M -1021,-463 H 1794 V 1233 H -1021 Z" /></clipPath></defs><g
     transform="matrix(1.3333333,0,0,-1.3333333,0,424.945)"
     id="g10"><path
       id="path12"
       style="fill:#ffffff;fill-opacity:1;fill-rule:nonzero;stroke:none"
       d="M 0,0 H 308.14176 V 318.70875 H 0 Z" /><path
       id="path14"
       style="fill:#ffffff;fill-opacity:1;fill-rule:nonzero;stroke:none"
       d="M 18.505625,194.14375 H 297.50562 v 108.72 H 18.505625 Z" /><g
       id="g16"><g
         clip-path="url(#clipPath22)"
         id="g18"><path
           id="path24"
           style="fill:#ff7f0e;fill-opacity:1;fill-rule:nonzero;stroke:#000000;stroke-width:1;stroke-linecap:butt;stroke-linejoin:miter;stroke-miterlimit:10;stroke-dasharray:none;stroke-opacity:1"
           d="m 88.255625,194.14375 h -32.61975 v 13.50559 h 32.61975 z" /></g></g><g
       id="g26"><g
         clip-path="url(#clipPath32)"
         id="g28"><path
           id="path34"
           style="fill:#ff7f0e;fill-opacity:1;fill-rule:nonzero;stroke:#000000;stroke-width:1;stroke-linecap:butt;stroke-linejoin:miter;stroke-miterlimit:10;stroke-dasharray:none;stroke-opacity:1"
           d="M 88.255625,207.64934 H 61.706013 v 13.50559 h 26.549612 z" /></g></g><g
       id="g36"><g
         clip-path="url(#clipPath42)"
         id="g38"><path
           id="path44"
           style="fill:#ff7f0e;fill-opacity:1;fill-rule:nonzero;stroke:#000000;stroke-width:1;stroke-linecap:butt;stroke-linejoin:miter;stroke-miterlimit:10;stroke-dasharray:none;stroke-opacity:1"
           d="M 88.255625,221.15493 H 68.751557 v 13.50559 h 19.504068 z" /></g></g><g
       id="g46"><g
         clip-path="url(#clipPath52)"
         id="g48"><path
           id="path54"
           style="fill:#ff7f0e;fill-opacity:1;fill-rule:nonzero;stroke:#000000;stroke-width:1;stroke-linecap:butt;stroke-linejoin:miter;stroke-miterlimit:10;stroke-dasharray:none;stroke-opacity:1"
           d="m 88.255625,234.66052 h -13.206 v 13.50559 h 13.206 z" /></g></g><g
       id="g56"><g
         clip-path="url(#clipPath62)"
         id="g58"><path
           id="path64"
           style="fill:#ff7f0e;fill-opacity:1;fill-rule:nonzero;stroke:#000000;stroke-width:1;stroke-linecap:butt;stroke-linejoin:miter;stroke-miterlimit:10;stroke-dasharray:none;stroke-opacity:1"
           d="M 88.255625,248.16611 H 85.1109 v 13.50559 h 3.144725 z" /></g></g><g
       id="g66"><g
         clip-path="url(#clipPath72)"
         id="g68"><path
           id="path74"
           style="fill:#d62728;fill-opacity:1;fill-rule:nonzero;stroke:#000000;stroke-width:1;stroke-linecap:butt;stroke-linejoin:miter;stroke-miterlimit:10;stroke-dasharray:none;stroke-opacity:1"
           d="m 88.255625,261.6717 h 3.941646 v 13.50559 h -3.941646 z" /></g></g><g
       id="g76"><g
         clip-path="url(#clipPath82)"
         id="g78"><path
           id="path84"
           style="fill:#d62728;fill-opacity:1;fill-rule:nonzero;stroke:#000000;stroke-width:1;stroke-linecap:butt;stroke-linejoin:miter;stroke-miterlimit:10;stroke-dasharray:none;stroke-opacity:1"
           d="m 88.255625,275.17729 h 40.106245 v 13.50559 H 88.255625 Z" /></g></g><g
       id="g86"><g
         clip-path="url(#clipPath92)"
         id="g88"><path
           id="path94"
           style="fill:#d62728;fill-opacity:1;fill-rule:nonzero;stroke:#000000;stroke-width:1;stroke-linecap:butt;stroke-linejoin:miter;stroke-miterlimit:10;stroke-dasharray:none;stroke-opacity:1"
           d="m 88.255625,288.68288 h 63.988645 v 13.50559 H 88.255625 Z" /></g></g><g
       id="g96"><path
         id="path98"
         style="fill:#000000;fill-opacity:1;fill-rule:nonzero;stroke:#000000;stroke-width:0.80000001;stroke-linecap:butt;stroke-linejoin:round;stroke-miterlimit:10;stroke-dasharray:none;stroke-opacity:1"
         d="m 18.505625,194.14375 v -3.5" /><g
         transform="translate(7.95875,179.55)"
         id="g100"><text
           id="text104"
           style="font-variant:normal;font-weight:normal;font-size:10px;font-family:'DejaVu Sans';-inkscape-font-specification:DejaVuSans;writing-mode:lr-tb;fill:#000000;fill-opacity:1;fill-rule:nonzero;stroke:none"
           transform="matrix(1,0,0,-1,8.3789063,0)"><tspan
             id="tspan102"
             y="0"
             x="0 6.3600001">10</tspan></text>
<g
           transform="scale(0.01)"
           id="g106"><g
             id="g108"><g
               clip-path="url(#clipPath114)"
               id="g110"><path
                 id="path116"
                 style="fill:#000000;fill-opacity:1;fill-rule:nonzero;stroke:none"
                 d="M 106,355 H 732 V 272 H 106 v 83" /></g></g></g></g><path
         id="path118"
         style="fill:#000000;fill-opacity:1;fill-rule:nonzero;stroke:#000000;stroke-width:0.80000001;stroke-linecap:butt;stroke-linejoin:round;stroke-miterlimit:10;stroke-dasharray:none;stroke-opacity:1"
         d="m 53.380625,194.14375 v -3.5" /><g
         transform="translate(46.013437,179.55)"
         id="g120"><text
           id="text124"
           style="font-variant:normal;font-weight:normal;font-size:10px;font-family:'DejaVu Sans';-inkscape-font-specification:DejaVuSans;writing-mode:lr-tb;fill:#000000;fill-opacity:1;fill-rule:nonzero;stroke:none"
           transform="matrix(1,0,0,-1,8.3789063,0)"><tspan
             id="tspan122"
             y="0"
             x="0">5</tspan></text>
<g
           transform="scale(0.01)"
           id="g126"><g
             id="g128"><g
               clip-path="url(#clipPath134)"
               id="g130"><path
                 id="path136"
                 style="fill:#000000;fill-opacity:1;fill-rule:nonzero;stroke:none"
                 d="M 106,355 H 732 V 272 H 106 v 83" /></g></g></g></g><path
         id="path138"
         style="fill:#000000;fill-opacity:1;fill-rule:nonzero;stroke:#000000;stroke-width:0.80000001;stroke-linecap:butt;stroke-linejoin:round;stroke-miterlimit:10;stroke-dasharray:none;stroke-opacity:1"
         d="m 88.255625,194.14375 v -3.5" /><text
         id="text142"
         style="font-variant:normal;font-weight:normal;font-size:10px;font-family:'DejaVu Sans';-inkscape-font-specification:DejaVuSans;writing-mode:lr-tb;fill:#000000;fill-opacity:1;fill-rule:nonzero;stroke:none"
         transform="matrix(1,0,0,-1,85.075937,179.55)"><tspan
           id="tspan140"
           y="0"
           x="0">0</tspan></text>
<path
         id="path144"
         style="fill:#000000;fill-opacity:1;fill-rule:nonzero;stroke:#000000;stroke-width:0.80000001;stroke-linecap:butt;stroke-linejoin:round;stroke-miterlimit:10;stroke-dasharray:none;stroke-opacity:1"
         d="m 123.13063,194.14375 v -3.5" /><text
         id="text148"
         style="font-variant:normal;font-weight:normal;font-size:10px;font-family:'DejaVu Sans';-inkscape-font-specification:DejaVuSans;writing-mode:lr-tb;fill:#000000;fill-opacity:1;fill-rule:nonzero;stroke:none"
         transform="matrix(1,0,0,-1,119.95094,179.55)"><tspan
           id="tspan146"
           y="0"
           x="0">5</tspan></text>
<path
         id="path150"
         style="fill:#000000;fill-opacity:1;fill-rule:nonzero;stroke:#000000;stroke-width:0.80000001;stroke-linecap:butt;stroke-linejoin:round;stroke-miterlimit:10;stroke-dasharray:none;stroke-opacity:1"
         d="m 158.00562,194.14375 v -3.5" /><text
         id="text154"
         style="font-variant:normal;font-weight:normal;font-size:10px;font-family:'DejaVu Sans';-inkscape-font-specification:DejaVuSans;writing-mode:lr-tb;fill:#000000;fill-opacity:1;fill-rule:nonzero;stroke:none"
         transform="matrix(1,0,0,-1,151.64625,179.55)"><tspan
           id="tspan152"
           y="0"
           x="0 6.3600001">10</tspan></text>
<path
         id="path156"
         style="fill:#000000;fill-opacity:1;fill-rule:nonzero;stroke:#000000;stroke-width:0.80000001;stroke-linecap:butt;stroke-linejoin:round;stroke-miterlimit:10;stroke-dasharray:none;stroke-opacity:1"
         d="m 192.88062,194.14375 v -3.5" /><text
         id="text160"
         style="font-variant:normal;font-weight:normal;font-size:10px;font-family:'DejaVu Sans';-inkscape-font-specification:DejaVuSans;writing-mode:lr-tb;fill:#000000;fill-opacity:1;fill-rule:nonzero;stroke:none"
         transform="matrix(1,0,0,-1,186.52125,179.55)"><tspan
           id="tspan158"
           y="0"
           x="0 6.3600001">15</tspan></text>
<path
         id="path162"
         style="fill:#000000;fill-opacity:1;fill-rule:nonzero;stroke:#000000;stroke-width:0.80000001;stroke-linecap:butt;stroke-linejoin:round;stroke-miterlimit:10;stroke-dasharray:none;stroke-opacity:1"
         d="m 227.75562,194.14375 v -3.5" /><text
         id="text166"
         style="font-variant:normal;font-weight:normal;font-size:10px;font-family:'DejaVu Sans';-inkscape-font-specification:DejaVuSans;writing-mode:lr-tb;fill:#000000;fill-opacity:1;fill-rule:nonzero;stroke:none"
         transform="matrix(1,0,0,-1,221.39625,179.55)"><tspan
           id="tspan164"
           y="0"
           x="0 6.3600001">20</tspan></text>
<path
         id="path168"
         style="fill:#000000;fill-opacity:1;fill-rule:nonzero;stroke:#000000;stroke-width:0.80000001;stroke-linecap:butt;stroke-linejoin:round;stroke-miterlimit:10;stroke-dasharray:none;stroke-opacity:1"
         d="m 262.63062,194.14375 v -3.5" /><text
         id="text172"
         style="font-variant:normal;font-weight:normal;font-size:10px;font-family:'DejaVu Sans';-inkscape-font-specification:DejaVuSans;writing-mode:lr-tb;fill:#000000;fill-opacity:1;fill-rule:nonzero;stroke:none"
         transform="matrix(1,0,0,-1,256.27125,179.55)"><tspan
           id="tspan170"
           y="0"
           x="0 6.3600001">25</tspan></text>
<path
         id="path174"
         style="fill:#000000;fill-opacity:1;fill-rule:nonzero;stroke:#000000;stroke-width:0.80000001;stroke-linecap:butt;stroke-linejoin:round;stroke-miterlimit:10;stroke-dasharray:none;stroke-opacity:1"
         d="m 297.50562,194.14375 v -3.5" /><text
         id="text178"
         style="font-variant:normal;font-weight:normal;font-size:10px;font-family:'DejaVu Sans';-inkscape-font-specification:DejaVuSans;writing-mode:lr-tb;fill:#000000;fill-opacity:1;fill-rule:nonzero;stroke:none"
         transform="matrix(1,0,0,-1,291.14625,179.55)"><tspan
           id="tspan176"
           y="0"
           x="0 6.3600001">30</tspan></text>
<text
         id="text182"
         style="font-variant:normal;font-weight:normal;font-size:10px;font-family:'DejaVu Sans';-inkscape-font-specification:DejaVuSans;writing-mode:lr-tb;fill:#000000;fill-opacity:1;fill-rule:nonzero;stroke:none"
         transform="matrix(1,0,0,-1,16.357188,165.87812)"><tspan
           id="tspan180"
           y="0"
           x="0 6.98 13.32 19.450001 25.790001 32.139999 38.290001 41.470001 44.990002 49.099998 55.220001 64.959999 68.139999 73.389999 79.540001 83.650002 89.769997 93.379997 98.589996 104.93 111.05 114.97 118.15 121.1 130.84 136.97 143.32001 149.47 156.95 163.10001 167.02 170.2 175.7 178.48 184.61 189.82001 195.03 197.81 201.33 204.11 210.25999 214.37 217.55 223.67999 229.17999 234.67999 241.02 245.13 251.25999 256.76001 262.67999 265.85999 269.76001 279.26001">Change from zero-shot ImageNet classifier accuracy (%)</tspan></text>
<path
         id="path184"
         style="fill:none;stroke:#000000;stroke-width:0.80000001;stroke-linecap:square;stroke-linejoin:miter;stroke-miterlimit:10;stroke-dasharray:none;stroke-opacity:1"
         d="M 18.505625,194.14375 H 297.50562" /><text
         id="text188"
         style="font-variant:normal;font-weight:normal;font-size:10px;font-family:'DejaVu Sans';-inkscape-font-specification:DejaVuSans;writing-mode:lr-tb;fill:#000000;fill-opacity:1;fill-rule:nonzero;stroke:none"
         transform="matrix(1,0,0,-1,89.650625,197.52015)"><tspan
           id="tspan186"
           y="0"
           x="0 2.95 12.69 18.82 25.17 31.32 38.799999 44.950001 48.869999 52.48">ImageNet-R</tspan></text>
<text
         id="text192"
         style="font-variant:normal;font-weight:normal;font-size:10px;font-family:'DejaVu Sans';-inkscape-font-specification:DejaVuSans;writing-mode:lr-tb;fill:#ff7f0e;fill-opacity:1;fill-rule:nonzero;stroke:none"
         transform="matrix(1,0,0,-1,34.710875,197.52015)"><tspan
           id="tspan190"
           y="0"
           x="0 3.6099999 9.9700003 13.15">-4.7</tspan></text>
<text
         id="text196"
         style="font-variant:normal;font-weight:normal;font-size:10px;font-family:'DejaVu Sans';-inkscape-font-specification:DejaVuSans;writing-mode:lr-tb;fill:#000000;fill-opacity:1;fill-rule:nonzero;stroke:none"
         transform="matrix(1,0,0,-1,89.650625,211.02574)"><tspan
           id="tspan194"
           y="0"
           x="0 7.8699999 14.22 17 23.15 28.65 32.57 40.049999 46.200001">ObjectNet</tspan></text>
<text
         id="text200"
         style="font-variant:normal;font-weight:normal;font-size:10px;font-family:'DejaVu Sans';-inkscape-font-specification:DejaVuSans;writing-mode:lr-tb;fill:#ff7f0e;fill-opacity:1;fill-rule:nonzero;stroke:none"
         transform="matrix(1,0,0,-1,40.781013,211.02574)"><tspan
           id="tspan198"
           y="0"
           x="0 3.6099999 9.9700003 13.15">-3.8</tspan></text>
<text
         id="text204"
         style="font-variant:normal;font-weight:normal;font-size:10px;font-family:'DejaVu Sans';-inkscape-font-specification:DejaVuSans;writing-mode:lr-tb;fill:#000000;fill-opacity:1;fill-rule:nonzero;stroke:none"
         transform="matrix(1,0,0,-1,89.650625,224.53133)"><tspan
           id="tspan202"
           y="0"
           x="0 2.95 12.69 18.82 25.17 31.32 38.799999 44.950001 48.869999 52.049999 58.400002 64.190002 70.339996 74.260002 79.760002">ImageNet Sketch</tspan></text>
<text
         id="text208"
         style="font-variant:normal;font-weight:normal;font-size:10px;font-family:'DejaVu Sans';-inkscape-font-specification:DejaVuSans;writing-mode:lr-tb;fill:#ff7f0e;fill-opacity:1;fill-rule:nonzero;stroke:none"
         transform="matrix(1,0,0,-1,47.826557,224.53133)"><tspan
           id="tspan206"
           y="0"
           x="0 3.6099999 9.9700003 13.15">-2.8</tspan></text>
<text
         id="text212"
         style="font-variant:normal;font-weight:normal;font-size:10px;font-family:'DejaVu Sans';-inkscape-font-specification:DejaVuSans;writing-mode:lr-tb;fill:#000000;fill-opacity:1;fill-rule:nonzero;stroke:none"
         transform="matrix(1,0,0,-1,89.650625,238.03692)"><tspan
           id="tspan210"
           y="0"
           x="0 2.95 12.69 18.82 25.17 31.32 38.799999 44.950001 48.869999 52.48">ImageNet-A</tspan></text>
<text
         id="text216"
         style="font-variant:normal;font-weight:normal;font-size:10px;font-family:'DejaVu Sans';-inkscape-font-specification:DejaVuSans;writing-mode:lr-tb;fill:#ff7f0e;fill-opacity:1;fill-rule:nonzero;stroke:none"
         transform="matrix(1,0,0,-1,54.124625,238.03692)"><tspan
           id="tspan214"
           y="0"
           x="0 3.6099999 9.9700003 13.15">-1.9</tspan></text>
<text
         id="text220"
         style="font-variant:normal;font-weight:normal;font-size:10px;font-family:'DejaVu Sans';-inkscape-font-specification:DejaVuSans;writing-mode:lr-tb;fill:#000000;fill-opacity:1;fill-rule:nonzero;stroke:none"
         transform="matrix(1,0,0,-1,89.650625,251.54251)"><tspan
           id="tspan218"
           y="0"
           x="0 2.95 12.69 18.82 25.17 31.32 38.799999 44.950001 48.869999 52.049999 58.889999 61.669998">ImageNet Vid</tspan></text>
<text
         id="text224"
         style="font-variant:normal;font-weight:normal;font-size:10px;font-family:'DejaVu Sans';-inkscape-font-specification:DejaVuSans;writing-mode:lr-tb;fill:#ff7f0e;fill-opacity:1;fill-rule:nonzero;stroke:none"
         transform="matrix(1,0,0,-1,64.1859,251.54251)"><tspan
           id="tspan222"
           y="0"
           x="0 3.6099999 9.9700003 13.15">-0.5</tspan></text>
<text
         id="text228"
         style="font-variant:normal;font-weight:normal;font-size:10px;font-family:'DejaVu Sans';-inkscape-font-specification:DejaVuSans;writing-mode:lr-tb;fill:#d62728;fill-opacity:1;fill-rule:nonzero;stroke:none"
         transform="matrix(1,0,0,-1,92.894771,265.0481)"><tspan
           id="tspan226"
           y="0"
           x="0 8.3800001 14.74 17.92">+0.6</tspan></text>
<text
         id="text232"
         style="font-variant:normal;font-weight:normal;font-size:10px;font-family:'DejaVu Sans';-inkscape-font-specification:DejaVuSans;writing-mode:lr-tb;fill:#000000;fill-opacity:1;fill-rule:nonzero;stroke:none"
         transform="matrix(1,0,0,-1,28.204375,265.0481)"><tspan
           id="tspan230"
           y="0"
           x="0 6.1100001 12.23 18.57 22.49 28.83 35.18 41.330002 44.939999 51.799999">Youtube-BB</tspan></text>
<text
         id="text236"
         style="font-variant:normal;font-weight:normal;font-size:10px;font-family:'DejaVu Sans';-inkscape-font-specification:DejaVuSans;writing-mode:lr-tb;fill:#d62728;fill-opacity:1;fill-rule:nonzero;stroke:none"
         transform="matrix(1,0,0,-1,129.05937,278.55369)"><tspan
           id="tspan234"
           y="0"
           x="0 8.3800001 14.74 17.92">+5.8</tspan></text>
<text
         id="text240"
         style="font-variant:normal;font-weight:normal;font-size:10px;font-family:'DejaVu Sans';-inkscape-font-specification:DejaVuSans;writing-mode:lr-tb;fill:#000000;fill-opacity:1;fill-rule:nonzero;stroke:none"
         transform="matrix(1,0,0,-1,24.766875,278.55369)"><tspan
           id="tspan238"
           y="0"
           x="0 2.95 12.69 18.82 25.17 31.32 38.799999 44.950001 48.869999 55.709999">ImageNetV2</tspan></text>
<text
         id="text244"
         style="font-variant:normal;font-weight:normal;font-size:10px;font-family:'DejaVu Sans';-inkscape-font-specification:DejaVuSans;writing-mode:lr-tb;fill:#d62728;fill-opacity:1;fill-rule:nonzero;stroke:none"
         transform="matrix(1,0,0,-1,152.94177,292.05928)"><tspan
           id="tspan242"
           y="0"
           x="0 8.3800001 14.74 17.92">+9.2</tspan></text>
<text
         id="text248"
         style="font-variant:normal;font-weight:normal;font-size:10px;font-family:'DejaVu Sans';-inkscape-font-specification:DejaVuSans;writing-mode:lr-tb;fill:#000000;fill-opacity:1;fill-rule:nonzero;stroke:none"
         transform="matrix(1,0,0,-1,37.97,292.05928)"><tspan
           id="tspan246"
           y="0"
           x="0 2.95 12.69 18.82 25.17 31.32 38.799999 44.950001">ImageNet</tspan></text>
<text
         id="text252"
         style="font-variant:normal;font-weight:normal;font-size:12px;font-family:'DejaVu Sans';-inkscape-font-specification:DejaVuSans;writing-mode:lr-tb;fill:#d62728;fill-opacity:1;fill-rule:nonzero;stroke:none"
         transform="matrix(1,0,0,-1,101.06813,308.86375)"><tspan
           id="tspan250"
           y="0"
           x="0 8.2080002 15.828 23.184 30.804001 35.507999 39.324001 44.028 51.372002 55.188 58.728001 70.416 77.772003 85.391998 92.772003 101.748 109.128">Adapt to ImageNet</tspan></text>
<path
         id="path254"
         style="fill:#ffffff;fill-opacity:1;fill-rule:nonzero;stroke:none"
         d="M 18.505625,31.06375 H 297.50562 v 108.72 H 18.505625 Z" /></g><g
       id="g256"><g
         clip-path="url(#clipPath262)"
         id="g258"><path
           id="path264"
           style="fill:#ff7f0e;fill-opacity:1;fill-rule:nonzero;stroke:#000000;stroke-width:1;stroke-linecap:butt;stroke-linejoin:miter;stroke-miterlimit:10;stroke-dasharray:none;stroke-opacity:1"
           d="m 88.255625,31.06375 v 0 13.50559 0 z" /></g></g><g
       id="g266"><g
         clip-path="url(#clipPath272)"
         id="g268"><path
           id="path274"
           style="fill:#ff7f0e;fill-opacity:1;fill-rule:nonzero;stroke:#000000;stroke-width:1;stroke-linecap:butt;stroke-linejoin:miter;stroke-miterlimit:10;stroke-dasharray:none;stroke-opacity:1"
           d="m 88.255625,44.56934 v 0 13.50559 0 z" /></g></g><g
       id="g276"><g
         clip-path="url(#clipPath282)"
         id="g278"><path
           id="path284"
           style="fill:#ff7f0e;fill-opacity:1;fill-rule:nonzero;stroke:#000000;stroke-width:1;stroke-linecap:butt;stroke-linejoin:miter;stroke-miterlimit:10;stroke-dasharray:none;stroke-opacity:1"
           d="m 88.255625,58.07493 v 0 13.50559 0 z" /></g></g><g
       id="g286"><g
         clip-path="url(#clipPath292)"
         id="g288"><path
           id="path294"
           style="fill:#ff7f0e;fill-opacity:1;fill-rule:nonzero;stroke:#000000;stroke-width:1;stroke-linecap:butt;stroke-linejoin:miter;stroke-miterlimit:10;stroke-dasharray:none;stroke-opacity:1"
           d="m 88.255625,71.58052 v 0 13.50559 0 z" /></g></g><g
       id="g296"><g
         clip-path="url(#clipPath302)"
         id="g298"><path
           id="path304"
           style="fill:#ff7f0e;fill-opacity:1;fill-rule:nonzero;stroke:#000000;stroke-width:1;stroke-linecap:butt;stroke-linejoin:miter;stroke-miterlimit:10;stroke-dasharray:none;stroke-opacity:1"
           d="m 88.255625,85.08611 v 0 13.50559 0 z" /></g></g><g
       id="g306"><g
         clip-path="url(#clipPath312)"
         id="g308"><path
           id="path314"
           style="fill:#9467bd;fill-opacity:1;fill-rule:nonzero;stroke:#000000;stroke-width:1;stroke-linecap:butt;stroke-linejoin:miter;stroke-miterlimit:10;stroke-dasharray:none;stroke-opacity:1"
           d="m 88.255625,98.5917 h 15.884705 v 13.50559 H 88.255625 Z" /></g></g><g
       id="g316"><g
         clip-path="url(#clipPath322)"
         id="g318"><path
           id="path324"
           style="fill:#9467bd;fill-opacity:1;fill-rule:nonzero;stroke:#000000;stroke-width:1;stroke-linecap:butt;stroke-linejoin:miter;stroke-miterlimit:10;stroke-dasharray:none;stroke-opacity:1"
           d="m 88.255625,112.09729 h 57.548465 v 13.50559 H 88.255625 Z" /></g></g><g
       id="g326"><g
         clip-path="url(#clipPath332)"
         id="g328"><path
           id="path334"
           style="fill:#9467bd;fill-opacity:1;fill-rule:nonzero;stroke:#000000;stroke-width:1;stroke-linecap:butt;stroke-linejoin:miter;stroke-miterlimit:10;stroke-dasharray:none;stroke-opacity:1"
           d="M 88.255625,125.60288 H 276.08363 v 13.50559 H 88.255625 Z" /></g></g><g
       id="g336"><path
         id="path338"
         style="fill:#000000;fill-opacity:1;fill-rule:nonzero;stroke:#000000;stroke-width:0.80000001;stroke-linecap:butt;stroke-linejoin:round;stroke-miterlimit:10;stroke-dasharray:none;stroke-opacity:1"
         d="m 18.505625,31.06375 v -3.5" /><g
         transform="translate(7.95875,16.47)"
         id="g340"><text
           id="text344"
           style="font-variant:normal;font-weight:normal;font-size:10px;font-family:'DejaVu Sans';-inkscape-font-specification:DejaVuSans;writing-mode:lr-tb;fill:#000000;fill-opacity:1;fill-rule:nonzero;stroke:none"
           transform="matrix(1,0,0,-1,8.3789063,0)"><tspan
             id="tspan342"
             y="0"
             x="0 6.3600001">10</tspan></text>
<g
           transform="scale(0.01)"
           id="g346"><g
             id="g348"><g
               clip-path="url(#clipPath354)"
               id="g350"><path
                 id="path356"
                 style="fill:#000000;fill-opacity:1;fill-rule:nonzero;stroke:none"
                 d="M 106,355 H 732 V 272 H 106 v 83" /></g></g></g></g><path
         id="path358"
         style="fill:#000000;fill-opacity:1;fill-rule:nonzero;stroke:#000000;stroke-width:0.80000001;stroke-linecap:butt;stroke-linejoin:round;stroke-miterlimit:10;stroke-dasharray:none;stroke-opacity:1"
         d="m 53.380625,31.06375 v -3.5" /><g
         transform="translate(46.013437,16.47)"
         id="g360"><text
           id="text364"
           style="font-variant:normal;font-weight:normal;font-size:10px;font-family:'DejaVu Sans';-inkscape-font-specification:DejaVuSans;writing-mode:lr-tb;fill:#000000;fill-opacity:1;fill-rule:nonzero;stroke:none"
           transform="matrix(1,0,0,-1,8.3789063,0)"><tspan
             id="tspan362"
             y="0"
             x="0">5</tspan></text>
<g
           transform="scale(0.01)"
           id="g366"><g
             id="g368"><g
               clip-path="url(#clipPath374)"
               id="g370"><path
                 id="path376"
                 style="fill:#000000;fill-opacity:1;fill-rule:nonzero;stroke:none"
                 d="M 106,355 H 732 V 272 H 106 v 83" /></g></g></g></g><path
         id="path378"
         style="fill:#000000;fill-opacity:1;fill-rule:nonzero;stroke:#000000;stroke-width:0.80000001;stroke-linecap:butt;stroke-linejoin:round;stroke-miterlimit:10;stroke-dasharray:none;stroke-opacity:1"
         d="m 88.255625,31.06375 v -3.5" /><text
         id="text382"
         style="font-variant:normal;font-weight:normal;font-size:10px;font-family:'DejaVu Sans';-inkscape-font-specification:DejaVuSans;writing-mode:lr-tb;fill:#000000;fill-opacity:1;fill-rule:nonzero;stroke:none"
         transform="matrix(1,0,0,-1,85.075937,16.47)"><tspan
           id="tspan380"
           y="0"
           x="0">0</tspan></text>
<path
         id="path384"
         style="fill:#000000;fill-opacity:1;fill-rule:nonzero;stroke:#000000;stroke-width:0.80000001;stroke-linecap:butt;stroke-linejoin:round;stroke-miterlimit:10;stroke-dasharray:none;stroke-opacity:1"
         d="m 123.13063,31.06375 v -3.5" /><text
         id="text388"
         style="font-variant:normal;font-weight:normal;font-size:10px;font-family:'DejaVu Sans';-inkscape-font-specification:DejaVuSans;writing-mode:lr-tb;fill:#000000;fill-opacity:1;fill-rule:nonzero;stroke:none"
         transform="matrix(1,0,0,-1,119.95094,16.47)"><tspan
           id="tspan386"
           y="0"
           x="0">5</tspan></text>
<path
         id="path390"
         style="fill:#000000;fill-opacity:1;fill-rule:nonzero;stroke:#000000;stroke-width:0.80000001;stroke-linecap:butt;stroke-linejoin:round;stroke-miterlimit:10;stroke-dasharray:none;stroke-opacity:1"
         d="m 158.00562,31.06375 v -3.5" /><text
         id="text394"
         style="font-variant:normal;font-weight:normal;font-size:10px;font-family:'DejaVu Sans';-inkscape-font-specification:DejaVuSans;writing-mode:lr-tb;fill:#000000;fill-opacity:1;fill-rule:nonzero;stroke:none"
         transform="matrix(1,0,0,-1,151.64625,16.47)"><tspan
           id="tspan392"
           y="0"
           x="0 6.3600001">10</tspan></text>
<path
         id="path396"
         style="fill:#000000;fill-opacity:1;fill-rule:nonzero;stroke:#000000;stroke-width:0.80000001;stroke-linecap:butt;stroke-linejoin:round;stroke-miterlimit:10;stroke-dasharray:none;stroke-opacity:1"
         d="m 192.88062,31.06375 v -3.5" /><text
         id="text400"
         style="font-variant:normal;font-weight:normal;font-size:10px;font-family:'DejaVu Sans';-inkscape-font-specification:DejaVuSans;writing-mode:lr-tb;fill:#000000;fill-opacity:1;fill-rule:nonzero;stroke:none"
         transform="matrix(1,0,0,-1,186.52125,16.47)"><tspan
           id="tspan398"
           y="0"
           x="0 6.3600001">15</tspan></text>
<path
         id="path402"
         style="fill:#000000;fill-opacity:1;fill-rule:nonzero;stroke:#000000;stroke-width:0.80000001;stroke-linecap:butt;stroke-linejoin:round;stroke-miterlimit:10;stroke-dasharray:none;stroke-opacity:1"
         d="m 227.75562,31.06375 v -3.5" /><text
         id="text406"
         style="font-variant:normal;font-weight:normal;font-size:10px;font-family:'DejaVu Sans';-inkscape-font-specification:DejaVuSans;writing-mode:lr-tb;fill:#000000;fill-opacity:1;fill-rule:nonzero;stroke:none"
         transform="matrix(1,0,0,-1,221.39625,16.47)"><tspan
           id="tspan404"
           y="0"
           x="0 6.3600001">20</tspan></text>
<path
         id="path408"
         style="fill:#000000;fill-opacity:1;fill-rule:nonzero;stroke:#000000;stroke-width:0.80000001;stroke-linecap:butt;stroke-linejoin:round;stroke-miterlimit:10;stroke-dasharray:none;stroke-opacity:1"
         d="m 262.63062,31.06375 v -3.5" /><text
         id="text412"
         style="font-variant:normal;font-weight:normal;font-size:10px;font-family:'DejaVu Sans';-inkscape-font-specification:DejaVuSans;writing-mode:lr-tb;fill:#000000;fill-opacity:1;fill-rule:nonzero;stroke:none"
         transform="matrix(1,0,0,-1,256.27125,16.47)"><tspan
           id="tspan410"
           y="0"
           x="0 6.3600001">25</tspan></text>
<path
         id="path414"
         style="fill:#000000;fill-opacity:1;fill-rule:nonzero;stroke:#000000;stroke-width:0.80000001;stroke-linecap:butt;stroke-linejoin:round;stroke-miterlimit:10;stroke-dasharray:none;stroke-opacity:1"
         d="m 297.50562,31.06375 v -3.5" /><text
         id="text418"
         style="font-variant:normal;font-weight:normal;font-size:10px;font-family:'DejaVu Sans';-inkscape-font-specification:DejaVuSans;writing-mode:lr-tb;fill:#000000;fill-opacity:1;fill-rule:nonzero;stroke:none"
         transform="matrix(1,0,0,-1,291.14625,16.47)"><tspan
           id="tspan416"
           y="0"
           x="0 6.3600001">30</tspan></text>
<text
         id="text422"
         style="font-variant:normal;font-weight:normal;font-size:10px;font-family:'DejaVu Sans';-inkscape-font-specification:DejaVuSans;writing-mode:lr-tb;fill:#000000;fill-opacity:1;fill-rule:nonzero;stroke:none"
         transform="matrix(1,0,0,-1,16.357188,2.798125)"><tspan
           id="tspan420"
           y="0"
           x="0 6.98 13.32 19.450001 25.790001 32.139999 38.290001 41.470001 44.990002 49.099998 55.220001 64.959999 68.139999 73.389999 79.540001 83.650002 89.769997 93.379997 98.589996 104.93 111.05 114.97 118.15 121.1 130.84 136.97 143.32001 149.47 156.95 163.10001 167.02 170.2 175.7 178.48 184.61 189.82001 195.03 197.81 201.33 204.11 210.25999 214.37 217.55 223.67999 229.17999 234.67999 241.02 245.13 251.25999 256.76001 262.67999 265.85999 269.76001 279.26001">Change from zero-shot ImageNet classifier accuracy (%)</tspan></text>
<path
         id="path424"
         style="fill:none;stroke:#000000;stroke-width:0.80000001;stroke-linecap:square;stroke-linejoin:miter;stroke-miterlimit:10;stroke-dasharray:none;stroke-opacity:1"
         d="M 18.505625,31.06375 H 297.50562" /><text
         id="text428"
         style="font-variant:normal;font-weight:normal;font-size:10px;font-family:'DejaVu Sans';-inkscape-font-specification:DejaVuSans;writing-mode:lr-tb;fill:#9467bd;fill-opacity:1;fill-rule:nonzero;stroke:none"
         transform="matrix(1,0,0,-1,88.953125,34.440148)"><tspan
           id="tspan426"
           y="0"
           x="0">0</tspan></text>
<text
         id="text432"
         style="font-variant:normal;font-weight:normal;font-size:10px;font-family:'DejaVu Sans';-inkscape-font-specification:DejaVuSans;writing-mode:lr-tb;fill:#000000;fill-opacity:1;fill-rule:nonzero;stroke:none"
         transform="matrix(1,0,0,-1,37.97,34.440148)"><tspan
           id="tspan430"
           y="0"
           x="0 2.95 12.69 18.82 25.17 31.32 38.799999 44.950001">ImageNet</tspan></text>
<text
         id="text436"
         style="font-variant:normal;font-weight:normal;font-size:10px;font-family:'DejaVu Sans';-inkscape-font-specification:DejaVuSans;writing-mode:lr-tb;fill:#9467bd;fill-opacity:1;fill-rule:nonzero;stroke:none"
         transform="matrix(1,0,0,-1,88.953125,47.945738)"><tspan
           id="tspan434"
           y="0"
           x="0">0</tspan></text>
<text
         id="text440"
         style="font-variant:normal;font-weight:normal;font-size:10px;font-family:'DejaVu Sans';-inkscape-font-specification:DejaVuSans;writing-mode:lr-tb;fill:#000000;fill-opacity:1;fill-rule:nonzero;stroke:none"
         transform="matrix(1,0,0,-1,24.766875,47.945738)"><tspan
           id="tspan438"
           y="0"
           x="0 2.95 12.69 18.82 25.17 31.32 38.799999 44.950001 48.869999 55.709999">ImageNetV2</tspan></text>
<text
         id="text444"
         style="font-variant:normal;font-weight:normal;font-size:10px;font-family:'DejaVu Sans';-inkscape-font-specification:DejaVuSans;writing-mode:lr-tb;fill:#9467bd;fill-opacity:1;fill-rule:nonzero;stroke:none"
         transform="matrix(1,0,0,-1,88.953125,61.451328)"><tspan
           id="tspan442"
           y="0"
           x="0">0</tspan></text>
<text
         id="text448"
         style="font-variant:normal;font-weight:normal;font-size:10px;font-family:'DejaVu Sans';-inkscape-font-specification:DejaVuSans;writing-mode:lr-tb;fill:#000000;fill-opacity:1;fill-rule:nonzero;stroke:none"
         transform="matrix(1,0,0,-1,27.516875,61.451328)"><tspan
           id="tspan446"
           y="0"
           x="0 2.95 12.69 18.82 25.17 31.32 38.799999 44.950001 48.869999 52.48">ImageNet-A</tspan></text>
<text
         id="text452"
         style="font-variant:normal;font-weight:normal;font-size:10px;font-family:'DejaVu Sans';-inkscape-font-specification:DejaVuSans;writing-mode:lr-tb;fill:#9467bd;fill-opacity:1;fill-rule:nonzero;stroke:none"
         transform="matrix(1,0,0,-1,88.953125,74.956918)"><tspan
           id="tspan450"
           y="0"
           x="0">0</tspan></text>
<text
         id="text456"
         style="font-variant:normal;font-weight:normal;font-size:10px;font-family:'DejaVu Sans';-inkscape-font-specification:DejaVuSans;writing-mode:lr-tb;fill:#000000;fill-opacity:1;fill-rule:nonzero;stroke:none"
         transform="matrix(1,0,0,-1,27.4075,74.956918)"><tspan
           id="tspan454"
           y="0"
           x="0 2.95 12.69 18.82 25.17 31.32 38.799999 44.950001 48.869999 52.48">ImageNet-R</tspan></text>
<text
         id="text460"
         style="font-variant:normal;font-weight:normal;font-size:10px;font-family:'DejaVu Sans';-inkscape-font-specification:DejaVuSans;writing-mode:lr-tb;fill:#9467bd;fill-opacity:1;fill-rule:nonzero;stroke:none"
         transform="matrix(1,0,0,-1,88.953125,88.462508)"><tspan
           id="tspan458"
           y="0"
           x="0">0</tspan></text>
<text
         id="text464"
         style="font-variant:normal;font-weight:normal;font-size:10px;font-family:'DejaVu Sans';-inkscape-font-specification:DejaVuSans;writing-mode:lr-tb;fill:#000000;fill-opacity:1;fill-rule:nonzero;stroke:none"
         transform="matrix(1,0,0,-1,0.72,88.462508)"><tspan
           id="tspan462"
           y="0"
           x="0 2.95 12.69 18.82 25.17 31.32 38.799999 44.950001 48.869999 52.049999 58.400002 64.190002 70.339996 74.260002 79.760002">ImageNet Sketch</tspan></text>
<text
         id="text468"
         style="font-variant:normal;font-weight:normal;font-size:10px;font-family:'DejaVu Sans';-inkscape-font-specification:DejaVuSans;writing-mode:lr-tb;fill:#9467bd;fill-opacity:1;fill-rule:nonzero;stroke:none"
         transform="matrix(1,0,0,-1,104.83783,101.9681)"><tspan
           id="tspan466"
           y="0"
           x="0 8.3800001 14.74 17.92">+2.3</tspan></text>
<text
         id="text472"
         style="font-variant:normal;font-weight:normal;font-size:10px;font-family:'DejaVu Sans';-inkscape-font-specification:DejaVuSans;writing-mode:lr-tb;fill:#000000;fill-opacity:1;fill-rule:nonzero;stroke:none"
         transform="matrix(1,0,0,-1,36.72,101.9681)"><tspan
           id="tspan470"
           y="0"
           x="0 7.8699999 14.22 17 23.15 28.65 32.57 40.049999 46.200001">ObjectNet</tspan></text>
<text
         id="text476"
         style="font-variant:normal;font-weight:normal;font-size:10px;font-family:'DejaVu Sans';-inkscape-font-specification:DejaVuSans;writing-mode:lr-tb;fill:#9467bd;fill-opacity:1;fill-rule:nonzero;stroke:none"
         transform="matrix(1,0,0,-1,146.50159,115.47369)"><tspan
           id="tspan474"
           y="0"
           x="0 8.3800001 14.74 17.92">+8.3</tspan></text>
<text
         id="text480"
         style="font-variant:normal;font-weight:normal;font-size:10px;font-family:'DejaVu Sans';-inkscape-font-specification:DejaVuSans;writing-mode:lr-tb;fill:#000000;fill-opacity:1;fill-rule:nonzero;stroke:none"
         transform="matrix(1,0,0,-1,18.81375,115.47369)"><tspan
           id="tspan478"
           y="0"
           x="0 2.95 12.69 18.82 25.17 31.32 38.799999 44.950001 48.869999 52.049999 58.889999 61.669998">ImageNet Vid</tspan></text>
<text
         id="text484"
         style="font-variant:normal;font-weight:normal;font-size:10px;font-family:'DejaVu Sans';-inkscape-font-specification:DejaVuSans;writing-mode:lr-tb;fill:#9467bd;fill-opacity:1;fill-rule:nonzero;stroke:none"
         transform="matrix(1,0,0,-1,276.78113,128.97928)"><tspan
           id="tspan482"
           y="0"
           x="0 8.3800001 14.74 21.1 24.280001">+26.9</tspan></text>
<text
         id="text488"
         style="font-variant:normal;font-weight:normal;font-size:10px;font-family:'DejaVu Sans';-inkscape-font-specification:DejaVuSans;writing-mode:lr-tb;fill:#000000;fill-opacity:1;fill-rule:nonzero;stroke:none"
         transform="matrix(1,0,0,-1,28.204375,128.97928)"><tspan
           id="tspan486"
           y="0"
           x="0 6.1100001 12.23 18.57 22.49 28.83 35.18 41.330002 44.939999 51.799999">Youtube-BB</tspan></text>
<text
         id="text492"
         style="font-variant:normal;font-weight:normal;font-size:12px;font-family:'DejaVu Sans';-inkscape-font-specification:DejaVuSans;writing-mode:lr-tb;fill:#9467bd;fill-opacity:1;fill-rule:nonzero;stroke:none"
         transform="matrix(1,0,0,-1,100.56031,145.78375)"><tspan
           id="tspan490"
           y="0"
           x="0 8.2080002 15.828 23.184 30.804001 35.507999 39.324001 44.028 51.372002 55.188 61.787998 65.124001 72.480003 78.732002 84.984001 88.800003 95.052002 102.66 105.996 110.22">Adapt to class shift</tspan></text>
</g></g></svg>