<?xml version="1.0" encoding="UTF-8" standalone="no"?>
<svg
   xmlns:dc="http://purl.org/dc/elements/1.1/"
   xmlns:cc="http://creativecommons.org/ns#"
   xmlns:rdf="http://www.w3.org/1999/02/22-rdf-syntax-ns#"
   xmlns:svg="http://www.w3.org/2000/svg"
   xmlns="http://www.w3.org/2000/svg"
   viewBox="0 0 373.92001 419.69916"
   height="419.69916"
   width="373.92001"
   xml:space="preserve"
   id="svg2"
   version="1.1"><metadata
     id="metadata8"><rdf:RDF><cc:Work
         rdf:about=""><dc:format>image/svg+xml</dc:format><dc:type
           rdf:resource="http://purl.org/dc/dcmitype/StillImage" /></cc:Work></rdf:RDF></metadata><defs
     id="defs6"><clipPath
       id="clipPath22"
       clipPathUnits="userSpaceOnUse"><path
         id="path20"
         d="m 0.72,42.254375 h 279 V 314.05437 h -279 z" /></clipPath><clipPath
       id="clipPath32"
       clipPathUnits="userSpaceOnUse"><path
         id="path30"
         d="m 0.72,42.254375 h 279 V 314.05437 h -279 z" /></clipPath><clipPath
       id="clipPath42"
       clipPathUnits="userSpaceOnUse"><path
         id="path40"
         d="m 0.72,42.254375 h 279 V 314.05437 h -279 z" /></clipPath><clipPath
       id="clipPath52"
       clipPathUnits="userSpaceOnUse"><path
         id="path50"
         d="m 0.72,42.254375 h 279 V 314.05437 h -279 z" /></clipPath><clipPath
       id="clipPath62"
       clipPathUnits="userSpaceOnUse"><path
         id="path60"
         d="m 0.72,42.254375 h 279 V 314.05437 h -279 z" /></clipPath><clipPath
       id="clipPath72"
       clipPathUnits="userSpaceOnUse"><path
         id="path70"
         d="m 0.72,42.254375 h 279 V 314.05437 h -279 z" /></clipPath><clipPath
       id="clipPath82"
       clipPathUnits="userSpaceOnUse"><path
         id="path80"
         d="m 0.72,42.254375 h 279 V 314.05437 h -279 z" /></clipPath><clipPath
       id="clipPath92"
       clipPathUnits="userSpaceOnUse"><path
         id="path90"
         d="m 0.72,42.254375 h 279 V 314.05437 h -279 z" /></clipPath><clipPath
       id="clipPath102"
       clipPathUnits="userSpaceOnUse"><path
         id="path100"
         d="m 0.72,42.254375 h 279 V 314.05437 h -279 z" /></clipPath><clipPath
       id="clipPath112"
       clipPathUnits="userSpaceOnUse"><path
         id="path110"
         d="m 0.72,42.254375 h 279 V 314.05437 h -279 z" /></clipPath><clipPath
       id="clipPath122"
       clipPathUnits="userSpaceOnUse"><path
         id="path120"
         d="m 0.72,42.254375 h 279 V 314.05437 h -279 z" /></clipPath><clipPath
       id="clipPath132"
       clipPathUnits="userSpaceOnUse"><path
         id="path130"
         d="m 0.72,42.254375 h 279 V 314.05437 h -279 z" /></clipPath><clipPath
       id="clipPath142"
       clipPathUnits="userSpaceOnUse"><path
         id="path140"
         d="m 0.72,42.254375 h 279 V 314.05437 h -279 z" /></clipPath><clipPath
       id="clipPath152"
       clipPathUnits="userSpaceOnUse"><path
         id="path150"
         d="m 0.72,42.254375 h 279 V 314.05437 h -279 z" /></clipPath><clipPath
       id="clipPath162"
       clipPathUnits="userSpaceOnUse"><path
         id="path160"
         d="m 0.72,42.254375 h 279 V 314.05437 h -279 z" /></clipPath><clipPath
       id="clipPath172"
       clipPathUnits="userSpaceOnUse"><path
         id="path170"
         d="m 0.72,42.254375 h 279 V 314.05437 h -279 z" /></clipPath><clipPath
       id="clipPath182"
       clipPathUnits="userSpaceOnUse"><path
         id="path180"
         d="m 0.72,42.254375 h 279 V 314.05437 h -279 z" /></clipPath><clipPath
       id="clipPath192"
       clipPathUnits="userSpaceOnUse"><path
         id="path190"
         d="m 0.72,42.254375 h 279 V 314.05437 h -279 z" /></clipPath><clipPath
       id="clipPath202"
       clipPathUnits="userSpaceOnUse"><path
         id="path200"
         d="m 0.72,42.254375 h 279 V 314.05437 h -279 z" /></clipPath><clipPath
       id="clipPath212"
       clipPathUnits="userSpaceOnUse"><path
         id="path210"
         d="m 0.72,42.254375 h 279 V 314.05437 h -279 z" /></clipPath><clipPath
       id="clipPath222"
       clipPathUnits="userSpaceOnUse"><path
         id="path220"
         d="m 0.72,42.254375 h 279 V 314.05437 h -279 z" /></clipPath><clipPath
       id="clipPath232"
       clipPathUnits="userSpaceOnUse"><path
         id="path230"
         d="m 0.72,42.254375 h 279 V 314.05437 h -279 z" /></clipPath><clipPath
       id="clipPath242"
       clipPathUnits="userSpaceOnUse"><path
         id="path240"
         d="m 0.72,42.254375 h 279 V 314.05437 h -279 z" /></clipPath><clipPath
       id="clipPath252"
       clipPathUnits="userSpaceOnUse"><path
         id="path250"
         d="m 0.72,42.254375 h 279 V 314.05437 h -279 z" /></clipPath><clipPath
       id="clipPath262"
       clipPathUnits="userSpaceOnUse"><path
         id="path260"
         d="m 0.72,42.254375 h 279 V 314.05437 h -279 z" /></clipPath><clipPath
       id="clipPath272"
       clipPathUnits="userSpaceOnUse"><path
         id="path270"
         d="m 0.72,42.254375 h 279 V 314.05437 h -279 z" /></clipPath><clipPath
       id="clipPath282"
       clipPathUnits="userSpaceOnUse"><path
         id="path280"
         d="m 0.72,42.254375 h 279 V 314.05437 h -279 z" /></clipPath><clipPath
       id="clipPath304"
       clipPathUnits="userSpaceOnUse"><path
         id="path302"
         d="M -1021,-463 H 1794 V 1233 H -1021 Z" /></clipPath><clipPath
       id="clipPath324"
       clipPathUnits="userSpaceOnUse"><path
         id="path322"
         d="M -1021,-463 H 1794 V 1233 H -1021 Z" /></clipPath><clipPath
       id="clipPath344"
       clipPathUnits="userSpaceOnUse"><path
         id="path342"
         d="M -1021,-463 H 1794 V 1233 H -1021 Z" /></clipPath><clipPath
       id="clipPath364"
       clipPathUnits="userSpaceOnUse"><path
         id="path362"
         d="M -1021,-463 H 1794 V 1233 H -1021 Z" /></clipPath><clipPath
       id="clipPath412"
       clipPathUnits="userSpaceOnUse"><path
         id="path410"
         d="M -1021,-463 H 1794 V 1233 H -1021 Z" /></clipPath></defs><g
     transform="matrix(1.3333333,0,0,-1.3333333,0,419.69917)"
     id="g10"><path
       id="path12"
       style="fill:#ffffff;fill-opacity:1;fill-rule:nonzero;stroke:none"
       d="M 0,0 H 280.44 V 314.77437 H 0 Z" /><path
       id="path14"
       style="fill:#ffffff;fill-opacity:1;fill-rule:nonzero;stroke:none"
       d="m 0.72,42.254375 h 279 V 314.05437 h -279 z" /><g
       id="g16"><g
         clip-path="url(#clipPath22)"
         id="g18"><path
           id="path24"
           style="fill:#1f77b4;fill-opacity:1;fill-rule:nonzero;stroke:#000000;stroke-width:1;stroke-linecap:butt;stroke-linejoin:miter;stroke-miterlimit:10;stroke-dasharray:none;stroke-opacity:1"
           d="M 140.22,42.254375 H 30.044681 V 52.302434 H 140.22 Z" /></g></g><g
       id="g26"><g
         clip-path="url(#clipPath32)"
         id="g28"><path
           id="path34"
           style="fill:#1f77b4;fill-opacity:1;fill-rule:nonzero;stroke:#000000;stroke-width:1;stroke-linecap:butt;stroke-linejoin:miter;stroke-miterlimit:10;stroke-dasharray:none;stroke-opacity:1"
           d="M 140.22,52.302434 H 39.196569 V 62.350493 H 140.22 Z" /></g></g><g
       id="g36"><g
         clip-path="url(#clipPath42)"
         id="g38"><path
           id="path44"
           style="fill:#1f77b4;fill-opacity:1;fill-rule:nonzero;stroke:#000000;stroke-width:1;stroke-linecap:butt;stroke-linejoin:miter;stroke-miterlimit:10;stroke-dasharray:none;stroke-opacity:1"
           d="M 140.22,62.350493 H 82.213356 V 72.398552 H 140.22 Z" /></g></g><g
       id="g46"><g
         clip-path="url(#clipPath52)"
         id="g48"><path
           id="path54"
           style="fill:#1f77b4;fill-opacity:1;fill-rule:nonzero;stroke:#000000;stroke-width:1;stroke-linecap:butt;stroke-linejoin:miter;stroke-miterlimit:10;stroke-dasharray:none;stroke-opacity:1"
           d="M 140.22,72.398552 H 85.699355 v 10.04806 H 140.22 Z" /></g></g><g
       id="g56"><g
         clip-path="url(#clipPath62)"
         id="g58"><path
           id="path64"
           style="fill:#1f77b4;fill-opacity:1;fill-rule:nonzero;stroke:#000000;stroke-width:1;stroke-linecap:butt;stroke-linejoin:miter;stroke-miterlimit:10;stroke-dasharray:none;stroke-opacity:1"
           d="M 140.22,82.446612 H 86.141489 V 92.494671 H 140.22 Z" /></g></g><g
       id="g66"><g
         clip-path="url(#clipPath72)"
         id="g68"><path
           id="path74"
           style="fill:#1f77b4;fill-opacity:1;fill-rule:nonzero;stroke:#000000;stroke-width:1;stroke-linecap:butt;stroke-linejoin:miter;stroke-miterlimit:10;stroke-dasharray:none;stroke-opacity:1"
           d="M 140.22,92.494671 H 90.962417 V 102.54273 H 140.22 Z" /></g></g><g
       id="g76"><g
         clip-path="url(#clipPath82)"
         id="g78"><path
           id="path84"
           style="fill:#1f77b4;fill-opacity:1;fill-rule:nonzero;stroke:#000000;stroke-width:1;stroke-linecap:butt;stroke-linejoin:miter;stroke-miterlimit:10;stroke-dasharray:none;stroke-opacity:1"
           d="m 140.22,102.54273 h -37.22463 v 10.04806 H 140.22 Z" /></g></g><g
       id="g86"><g
         clip-path="url(#clipPath92)"
         id="g88"><path
           id="path94"
           style="fill:#1f77b4;fill-opacity:1;fill-rule:nonzero;stroke:#000000;stroke-width:1;stroke-linecap:butt;stroke-linejoin:miter;stroke-miterlimit:10;stroke-dasharray:none;stroke-opacity:1"
           d="m 140.22,112.59079 h -35.34613 v 10.04806 H 140.22 Z" /></g></g><g
       id="g96"><g
         clip-path="url(#clipPath102)"
         id="g98"><path
           id="path104"
           style="fill:#1f77b4;fill-opacity:1;fill-rule:nonzero;stroke:#000000;stroke-width:1;stroke-linecap:butt;stroke-linejoin:miter;stroke-miterlimit:10;stroke-dasharray:none;stroke-opacity:1"
           d="m 140.22,122.63885 h -33.54571 v 10.04806 H 140.22 Z" /></g></g><g
       id="g106"><g
         clip-path="url(#clipPath112)"
         id="g108"><path
           id="path114"
           style="fill:#1f77b4;fill-opacity:1;fill-rule:nonzero;stroke:#000000;stroke-width:1;stroke-linecap:butt;stroke-linejoin:miter;stroke-miterlimit:10;stroke-dasharray:none;stroke-opacity:1"
           d="m 140.22,132.68691 h -29.56213 v 10.04806 H 140.22 Z" /></g></g><g
       id="g116"><g
         clip-path="url(#clipPath122)"
         id="g118"><path
           id="path124"
           style="fill:#1f77b4;fill-opacity:1;fill-rule:nonzero;stroke:#000000;stroke-width:1;stroke-linecap:butt;stroke-linejoin:miter;stroke-miterlimit:10;stroke-dasharray:none;stroke-opacity:1"
           d="m 140.22,142.73497 h -9.3918 v 10.04806 h 9.3918 z" /></g></g><g
       id="g126"><g
         clip-path="url(#clipPath132)"
         id="g128"><path
           id="path134"
           style="fill:#2ca02c;fill-opacity:1;fill-rule:nonzero;stroke:#000000;stroke-width:1;stroke-linecap:butt;stroke-linejoin:miter;stroke-miterlimit:10;stroke-dasharray:none;stroke-opacity:1"
           d="m 140.22,152.78303 h 1.58171 v 10.04805 H 140.22 Z" /></g></g><g
       id="g136"><g
         clip-path="url(#clipPath142)"
         id="g138"><path
           id="path144"
           style="fill:#2ca02c;fill-opacity:1;fill-rule:nonzero;stroke:#000000;stroke-width:1;stroke-linecap:butt;stroke-linejoin:miter;stroke-miterlimit:10;stroke-dasharray:none;stroke-opacity:1"
           d="m 140.22,162.83108 h 3.393 v 10.04806 h -3.393 z" /></g></g><g
       id="g146"><g
         clip-path="url(#clipPath152)"
         id="g148"><path
           id="path154"
           style="fill:#2ca02c;fill-opacity:1;fill-rule:nonzero;stroke:#000000;stroke-width:1;stroke-linecap:butt;stroke-linejoin:miter;stroke-miterlimit:10;stroke-dasharray:none;stroke-opacity:1"
           d="m 140.22,172.87914 h 5.75808 V 182.9272 H 140.22 Z" /></g></g><g
       id="g156"><g
         clip-path="url(#clipPath162)"
         id="g158"><path
           id="path164"
           style="fill:#2ca02c;fill-opacity:1;fill-rule:nonzero;stroke:#000000;stroke-width:1;stroke-linecap:butt;stroke-linejoin:miter;stroke-miterlimit:10;stroke-dasharray:none;stroke-opacity:1"
           d="m 140.22,182.9272 h 5.84097 v 10.04806 H 140.22 Z" /></g></g><g
       id="g166"><g
         clip-path="url(#clipPath172)"
         id="g168"><path
           id="path174"
           style="fill:#2ca02c;fill-opacity:1;fill-rule:nonzero;stroke:#000000;stroke-width:1;stroke-linecap:butt;stroke-linejoin:miter;stroke-miterlimit:10;stroke-dasharray:none;stroke-opacity:1"
           d="m 140.22,192.97526 h 8.18725 v 10.04806 H 140.22 Z" /></g></g><g
       id="g176"><g
         clip-path="url(#clipPath182)"
         id="g178"><path
           id="path184"
           style="fill:#2ca02c;fill-opacity:1;fill-rule:nonzero;stroke:#000000;stroke-width:1;stroke-linecap:butt;stroke-linejoin:miter;stroke-miterlimit:10;stroke-dasharray:none;stroke-opacity:1"
           d="m 140.22,203.02332 h 8.90054 v 10.04806 H 140.22 Z" /></g></g><g
       id="g186"><g
         clip-path="url(#clipPath192)"
         id="g188"><path
           id="path194"
           style="fill:#2ca02c;fill-opacity:1;fill-rule:nonzero;stroke:#000000;stroke-width:1;stroke-linecap:butt;stroke-linejoin:miter;stroke-miterlimit:10;stroke-dasharray:none;stroke-opacity:1"
           d="m 140.22,213.07138 h 8.93394 v 10.04806 H 140.22 Z" /></g></g><g
       id="g196"><g
         clip-path="url(#clipPath202)"
         id="g198"><path
           id="path204"
           style="fill:#2ca02c;fill-opacity:1;fill-rule:nonzero;stroke:#000000;stroke-width:1;stroke-linecap:butt;stroke-linejoin:miter;stroke-miterlimit:10;stroke-dasharray:none;stroke-opacity:1"
           d="m 140.22,223.11944 h 11.48649 V 233.1675 H 140.22 Z" /></g></g><g
       id="g206"><g
         clip-path="url(#clipPath212)"
         id="g208"><path
           id="path214"
           style="fill:#2ca02c;fill-opacity:1;fill-rule:nonzero;stroke:#000000;stroke-width:1;stroke-linecap:butt;stroke-linejoin:miter;stroke-miterlimit:10;stroke-dasharray:none;stroke-opacity:1"
           d="m 140.22,233.1675 h 20.00727 v 10.04806 H 140.22 Z" /></g></g><g
       id="g216"><g
         clip-path="url(#clipPath222)"
         id="g218"><path
           id="path224"
           style="fill:#2ca02c;fill-opacity:1;fill-rule:nonzero;stroke:#000000;stroke-width:1;stroke-linecap:butt;stroke-linejoin:miter;stroke-miterlimit:10;stroke-dasharray:none;stroke-opacity:1"
           d="m 140.22,243.21556 h 22.85943 v 10.04806 H 140.22 Z" /></g></g><g
       id="g226"><g
         clip-path="url(#clipPath232)"
         id="g228"><path
           id="path234"
           style="fill:#2ca02c;fill-opacity:1;fill-rule:nonzero;stroke:#000000;stroke-width:1;stroke-linecap:butt;stroke-linejoin:miter;stroke-miterlimit:10;stroke-dasharray:none;stroke-opacity:1"
           d="m 140.22,253.26362 h 23.2961 v 10.04806 H 140.22 Z" /></g></g><g
       id="g236"><g
         clip-path="url(#clipPath242)"
         id="g238"><path
           id="path244"
           style="fill:#2ca02c;fill-opacity:1;fill-rule:nonzero;stroke:#000000;stroke-width:1;stroke-linecap:butt;stroke-linejoin:miter;stroke-miterlimit:10;stroke-dasharray:none;stroke-opacity:1"
           d="m 140.22,263.31168 h 36.8362 v 10.04805 H 140.22 Z" /></g></g><g
       id="g246"><g
         clip-path="url(#clipPath252)"
         id="g248"><path
           id="path254"
           style="fill:#2ca02c;fill-opacity:1;fill-rule:nonzero;stroke:#000000;stroke-width:1;stroke-linecap:butt;stroke-linejoin:miter;stroke-miterlimit:10;stroke-dasharray:none;stroke-opacity:1"
           d="m 140.22,273.35973 h 43.07936 v 10.04806 H 140.22 Z" /></g></g><g
       id="g256"><g
         clip-path="url(#clipPath262)"
         id="g258"><path
           id="path264"
           style="fill:#2ca02c;fill-opacity:1;fill-rule:nonzero;stroke:#000000;stroke-width:1;stroke-linecap:butt;stroke-linejoin:miter;stroke-miterlimit:10;stroke-dasharray:none;stroke-opacity:1"
           d="m 140.22,283.40779 h 66.86126 v 10.04806 H 140.22 Z" /></g></g><g
       id="g266"><g
         clip-path="url(#clipPath272)"
         id="g268"><path
           id="path274"
           style="fill:#2ca02c;fill-opacity:1;fill-rule:nonzero;stroke:#000000;stroke-width:1;stroke-linecap:butt;stroke-linejoin:miter;stroke-miterlimit:10;stroke-dasharray:none;stroke-opacity:1"
           d="m 140.22,293.45585 h 68.88489 v 10.04806 H 140.22 Z" /></g></g><g
       id="g276"><g
         clip-path="url(#clipPath282)"
         id="g278"><path
           id="path284"
           style="fill:#2ca02c;fill-opacity:1;fill-rule:nonzero;stroke:#000000;stroke-width:1;stroke-linecap:butt;stroke-linejoin:miter;stroke-miterlimit:10;stroke-dasharray:none;stroke-opacity:1"
           d="m 140.22,303.50391 h 85.78323 v 10.04806 H 140.22 Z" /></g></g><g
       id="g286"><path
         id="path288"
         style="fill:#000000;fill-opacity:1;fill-rule:nonzero;stroke:#000000;stroke-width:0.80000001;stroke-linecap:butt;stroke-linejoin:round;stroke-miterlimit:10;stroke-dasharray:none;stroke-opacity:1"
         d="m 21.496596,42.254375 v -3.5" /><g
         transform="translate(10.949721,27.660625)"
         id="g290"><text
           id="text294"
           style="font-variant:normal;font-weight:normal;font-size:10px;font-family:'DejaVu Sans';-inkscape-font-specification:DejaVuSans;writing-mode:lr-tb;fill:#000000;fill-opacity:1;fill-rule:nonzero;stroke:none"
           transform="matrix(1,0,0,-1,8.3789063,0)"><tspan
             id="tspan292"
             y="0"
             x="0 6.3600001">40</tspan></text>
<g
           transform="scale(0.01)"
           id="g296"><g
             id="g298"><g
               clip-path="url(#clipPath304)"
               id="g300"><path
                 id="path306"
                 style="fill:#000000;fill-opacity:1;fill-rule:nonzero;stroke:none"
                 d="M 106,355 H 732 V 272 H 106 v 83" /></g></g></g></g><path
         id="path308"
         style="fill:#000000;fill-opacity:1;fill-rule:nonzero;stroke:#000000;stroke-width:0.80000001;stroke-linecap:butt;stroke-linejoin:round;stroke-miterlimit:10;stroke-dasharray:none;stroke-opacity:1"
         d="m 51.177447,42.254375 v -3.5" /><g
         transform="translate(40.630572,27.660625)"
         id="g310"><text
           id="text314"
           style="font-variant:normal;font-weight:normal;font-size:10px;font-family:'DejaVu Sans';-inkscape-font-specification:DejaVuSans;writing-mode:lr-tb;fill:#000000;fill-opacity:1;fill-rule:nonzero;stroke:none"
           transform="matrix(1,0,0,-1,8.3789063,0)"><tspan
             id="tspan312"
             y="0"
             x="0 6.3600001">30</tspan></text>
<g
           transform="scale(0.01)"
           id="g316"><g
             id="g318"><g
               clip-path="url(#clipPath324)"
               id="g320"><path
                 id="path326"
                 style="fill:#000000;fill-opacity:1;fill-rule:nonzero;stroke:none"
                 d="M 106,355 H 732 V 272 H 106 v 83" /></g></g></g></g><path
         id="path328"
         style="fill:#000000;fill-opacity:1;fill-rule:nonzero;stroke:#000000;stroke-width:0.80000001;stroke-linecap:butt;stroke-linejoin:round;stroke-miterlimit:10;stroke-dasharray:none;stroke-opacity:1"
         d="m 80.858298,42.254375 v -3.5" /><g
         transform="translate(70.311423,27.660625)"
         id="g330"><text
           id="text334"
           style="font-variant:normal;font-weight:normal;font-size:10px;font-family:'DejaVu Sans';-inkscape-font-specification:DejaVuSans;writing-mode:lr-tb;fill:#000000;fill-opacity:1;fill-rule:nonzero;stroke:none"
           transform="matrix(1,0,0,-1,8.3789063,0)"><tspan
             id="tspan332"
             y="0"
             x="0 6.3600001">20</tspan></text>
<g
           transform="scale(0.01)"
           id="g336"><g
             id="g338"><g
               clip-path="url(#clipPath344)"
               id="g340"><path
                 id="path346"
                 style="fill:#000000;fill-opacity:1;fill-rule:nonzero;stroke:none"
                 d="M 106,355 H 732 V 272 H 106 v 83" /></g></g></g></g><path
         id="path348"
         style="fill:#000000;fill-opacity:1;fill-rule:nonzero;stroke:#000000;stroke-width:0.80000001;stroke-linecap:butt;stroke-linejoin:round;stroke-miterlimit:10;stroke-dasharray:none;stroke-opacity:1"
         d="m 110.53915,42.254375 v -3.5" /><g
         transform="translate(99.992274,27.660625)"
         id="g350"><text
           id="text354"
           style="font-variant:normal;font-weight:normal;font-size:10px;font-family:'DejaVu Sans';-inkscape-font-specification:DejaVuSans;writing-mode:lr-tb;fill:#000000;fill-opacity:1;fill-rule:nonzero;stroke:none"
           transform="matrix(1,0,0,-1,8.3789063,0)"><tspan
             id="tspan352"
             y="0"
             x="0 6.3600001">10</tspan></text>
<g
           transform="scale(0.01)"
           id="g356"><g
             id="g358"><g
               clip-path="url(#clipPath364)"
               id="g360"><path
                 id="path366"
                 style="fill:#000000;fill-opacity:1;fill-rule:nonzero;stroke:none"
                 d="M 106,355 H 732 V 272 H 106 v 83" /></g></g></g></g><path
         id="path368"
         style="fill:#000000;fill-opacity:1;fill-rule:nonzero;stroke:#000000;stroke-width:0.80000001;stroke-linecap:butt;stroke-linejoin:round;stroke-miterlimit:10;stroke-dasharray:none;stroke-opacity:1"
         d="m 140.22,42.254375 v -3.5" /><text
         id="text372"
         style="font-variant:normal;font-weight:normal;font-size:10px;font-family:'DejaVu Sans';-inkscape-font-specification:DejaVuSans;writing-mode:lr-tb;fill:#000000;fill-opacity:1;fill-rule:nonzero;stroke:none"
         transform="matrix(1,0,0,-1,137.04031,27.660625)"><tspan
           id="tspan370"
           y="0"
           x="0">0</tspan></text>
<path
         id="path374"
         style="fill:#000000;fill-opacity:1;fill-rule:nonzero;stroke:#000000;stroke-width:0.80000001;stroke-linecap:butt;stroke-linejoin:round;stroke-miterlimit:10;stroke-dasharray:none;stroke-opacity:1"
         d="m 169.90085,42.254375 v -3.5" /><text
         id="text378"
         style="font-variant:normal;font-weight:normal;font-size:10px;font-family:'DejaVu Sans';-inkscape-font-specification:DejaVuSans;writing-mode:lr-tb;fill:#000000;fill-opacity:1;fill-rule:nonzero;stroke:none"
         transform="matrix(1,0,0,-1,163.54148,27.660625)"><tspan
           id="tspan376"
           y="0"
           x="0 6.3600001">10</tspan></text>
<path
         id="path380"
         style="fill:#000000;fill-opacity:1;fill-rule:nonzero;stroke:#000000;stroke-width:0.80000001;stroke-linecap:butt;stroke-linejoin:round;stroke-miterlimit:10;stroke-dasharray:none;stroke-opacity:1"
         d="m 199.5817,42.254375 v -3.5" /><text
         id="text384"
         style="font-variant:normal;font-weight:normal;font-size:10px;font-family:'DejaVu Sans';-inkscape-font-specification:DejaVuSans;writing-mode:lr-tb;fill:#000000;fill-opacity:1;fill-rule:nonzero;stroke:none"
         transform="matrix(1,0,0,-1,193.22233,27.660625)"><tspan
           id="tspan382"
           y="0"
           x="0 6.3600001">20</tspan></text>
<path
         id="path386"
         style="fill:#000000;fill-opacity:1;fill-rule:nonzero;stroke:#000000;stroke-width:0.80000001;stroke-linecap:butt;stroke-linejoin:round;stroke-miterlimit:10;stroke-dasharray:none;stroke-opacity:1"
         d="m 229.26255,42.254375 v -3.5" /><text
         id="text390"
         style="font-variant:normal;font-weight:normal;font-size:10px;font-family:'DejaVu Sans';-inkscape-font-specification:DejaVuSans;writing-mode:lr-tb;fill:#000000;fill-opacity:1;fill-rule:nonzero;stroke:none"
         transform="matrix(1,0,0,-1,222.90318,27.660625)"><tspan
           id="tspan388"
           y="0"
           x="0 6.3600001">30</tspan></text>
<path
         id="path392"
         style="fill:#000000;fill-opacity:1;fill-rule:nonzero;stroke:#000000;stroke-width:0.80000001;stroke-linecap:butt;stroke-linejoin:round;stroke-miterlimit:10;stroke-dasharray:none;stroke-opacity:1"
         d="m 258.9434,42.254375 v -3.5" /><text
         id="text396"
         style="font-variant:normal;font-weight:normal;font-size:10px;font-family:'DejaVu Sans';-inkscape-font-specification:DejaVuSans;writing-mode:lr-tb;fill:#000000;fill-opacity:1;fill-rule:nonzero;stroke:none"
         transform="matrix(1,0,0,-1,252.58403,27.660625)"><tspan
           id="tspan394"
           y="0"
           x="0 6.3600001">40</tspan></text>
<g
         transform="translate(110.83719,13.98875)"
         id="g398"><text
           id="text402"
           style="font-variant:normal;font-weight:normal;font-size:10px;font-family:'DejaVu Sans';-inkscape-font-specification:DejaVuSans;writing-mode:lr-tb;fill:#000000;fill-opacity:1;fill-rule:nonzero;stroke:none"
           transform="matrix(1,0,0,-1,10.02082,0)"><tspan
             id="tspan400"
             y="0"
             x="0 6.3499999 11.85 17.969999 22.08 28.23 31.41 35.310001 44.810001">Score (%)</tspan></text>
<g
           transform="scale(0.01)"
           id="g404"><g
             id="g406"><g
               clip-path="url(#clipPath412)"
               id="g408"><path
                 id="path414"
                 style="fill:#000000;fill-opacity:1;fill-rule:nonzero;stroke:none"
                 d="M 342,632 142,82 H 542 L 342,632 M 8,0 286,729 H 398 L 676,0 H 8" /></g></g></g></g><text
         id="text418"
         style="font-variant:normal;font-weight:normal;font-size:10px;font-family:'DejaVu Sans';-inkscape-font-specification:DejaVuSans;writing-mode:lr-tb;fill:#000000;fill-opacity:1;fill-rule:nonzero;stroke:none"
         transform="matrix(1,0,0,-1,27.454375,2.798125)"><tspan
           id="tspan416"
           y="0"
           x="0 6.8499999 13 17.110001 23.23 26.84 33.189999 39.529999 45.650002 49.57 52.75 59.73 65.300003 68.25 74.279999 77.459999 83.379997 88.589996 91.769997 94.949997 100.52 103.3 109.64 115.79 121.92 126.03 129.21001 135.24001 139.35001 145.47 151.82001 157.97 161.14999 167.27 173.61 176.78999 183.74001 189.89 195.10001 202.58 208.73 212.64999 219.00999">Zero-Shot CLIP vs. Linear Probe on ResNet50</tspan></text>
<path
         id="path420"
         style="fill:none;stroke:#000000;stroke-width:0.80000001;stroke-linecap:square;stroke-linejoin:miter;stroke-miterlimit:10;stroke-dasharray:none;stroke-opacity:1"
         d="m 0.72,42.254375 h 279" /><text
         id="text424"
         style="font-variant:normal;font-weight:normal;font-size:10px;font-family:'DejaVu Sans';-inkscape-font-specification:DejaVuSans;writing-mode:lr-tb;fill:#000000;fill-opacity:1;fill-rule:nonzero;stroke:none"
         transform="matrix(1,0,0,-1,143.18809,43.929052)"><tspan
           id="tspan422"
           y="0"
           x="0 6.3200002 12.66 16.77 22.889999 29.24 36.080002">EuroSAT</tspan></text>
<text
         id="text428"
         style="font-variant:normal;font-weight:normal;font-size:10px;font-family:'DejaVu Sans';-inkscape-font-specification:DejaVuSans;writing-mode:lr-tb;fill:#1f77b4;fill-opacity:1;fill-rule:nonzero;stroke:none"
         transform="matrix(1,0,0,-1,2.5898936,43.929052)"><tspan
           id="tspan426"
           y="0"
           x="0 3.6099999 9.9700003 16.33 19.51">-37.1</tspan></text>
<text
         id="text432"
         style="font-variant:normal;font-weight:normal;font-size:10px;font-family:'DejaVu Sans';-inkscape-font-specification:DejaVuSans;writing-mode:lr-tb;fill:#000000;fill-opacity:1;fill-rule:nonzero;stroke:none"
         transform="matrix(1,0,0,-1,143.18809,53.977111)"><tspan
           id="tspan430"
           y="0"
           x="0 6.5599999 9.5100002 15.62 21.73 24.68 27.860001 35.560001 38.34 43.549999 47.470001 53.599998 59.939999 65.440002">KITTI Distance</tspan></text>
<text
         id="text436"
         style="font-variant:normal;font-weight:normal;font-size:10px;font-family:'DejaVu Sans';-inkscape-font-specification:DejaVuSans;writing-mode:lr-tb;fill:#1f77b4;fill-opacity:1;fill-rule:nonzero;stroke:none"
         transform="matrix(1,0,0,-1,11.741782,53.977111)"><tspan
           id="tspan434"
           y="0"
           x="0 3.6099999 9.9700003 16.33 19.51">-34.0</tspan></text>
<text
         id="text440"
         style="font-variant:normal;font-weight:normal;font-size:10px;font-family:'DejaVu Sans';-inkscape-font-specification:DejaVuSans;writing-mode:lr-tb;fill:#000000;fill-opacity:1;fill-rule:nonzero;stroke:none"
         transform="matrix(1,0,0,-1,143.18809,64.02517)"><tspan
           id="tspan438"
           y="0"
           x="0 6.0300002 12.16 16.08 21.58 27.92 34.900002 41.029999 50.77 56.919998 59.700001 65.620003 71.739998">PatchCamelyon</tspan></text>
<text
         id="text444"
         style="font-variant:normal;font-weight:normal;font-size:10px;font-family:'DejaVu Sans';-inkscape-font-specification:DejaVuSans;writing-mode:lr-tb;fill:#1f77b4;fill-opacity:1;fill-rule:nonzero;stroke:none"
         transform="matrix(1,0,0,-1,54.758569,64.02517)"><tspan
           id="tspan442"
           y="0"
           x="0 3.6099999 9.9700003 16.33 19.51">-19.5</tspan></text>
<text
         id="text448"
         style="font-variant:normal;font-weight:normal;font-size:10px;font-family:'DejaVu Sans';-inkscape-font-specification:DejaVuSans;writing-mode:lr-tb;fill:#000000;fill-opacity:1;fill-rule:nonzero;stroke:none"
         transform="matrix(1,0,0,-1,143.18809,74.073229)"><tspan
           id="tspan446"
           y="0"
           x="0 7.75 13.86 20.209999 27.16">GTSRB</tspan></text>
<text
         id="text452"
         style="font-variant:normal;font-weight:normal;font-size:10px;font-family:'DejaVu Sans';-inkscape-font-specification:DejaVuSans;writing-mode:lr-tb;fill:#1f77b4;fill-opacity:1;fill-rule:nonzero;stroke:none"
         transform="matrix(1,0,0,-1,58.244568,74.073229)"><tspan
           id="tspan450"
           y="0"
           x="0 3.6099999 9.9700003 16.33 19.51">-18.4</tspan></text>
<text
         id="text456"
         style="font-variant:normal;font-weight:normal;font-size:10px;font-family:'DejaVu Sans';-inkscape-font-specification:DejaVuSans;writing-mode:lr-tb;fill:#000000;fill-opacity:1;fill-rule:nonzero;stroke:none"
         transform="matrix(1,0,0,-1,143.18809,84.121288)"><tspan
           id="tspan454"
           y="0"
           x="0 6.98 12.55 18.870001 25.709999 32.66 39.639999 45.759998 52.099998 58.439999 62.360001">CLEVRCounts</tspan></text>
<text
         id="text460"
         style="font-variant:normal;font-weight:normal;font-size:10px;font-family:'DejaVu Sans';-inkscape-font-specification:DejaVuSans;writing-mode:lr-tb;fill:#1f77b4;fill-opacity:1;fill-rule:nonzero;stroke:none"
         transform="matrix(1,0,0,-1,58.686702,84.121288)"><tspan
           id="tspan458"
           y="0"
           x="0 3.6099999 9.9700003 16.33 19.51">-18.2</tspan></text>
<text
         id="text464"
         style="font-variant:normal;font-weight:normal;font-size:10px;font-family:'DejaVu Sans';-inkscape-font-specification:DejaVuSans;writing-mode:lr-tb;fill:#000000;fill-opacity:1;fill-rule:nonzero;stroke:none"
         transform="matrix(1,0,0,-1,143.18809,94.169347)"><tspan
           id="tspan462"
           y="0"
           x="0 7.6999998 13.81">DTD</tspan></text>
<text
         id="text468"
         style="font-variant:normal;font-weight:normal;font-size:10px;font-family:'DejaVu Sans';-inkscape-font-specification:DejaVuSans;writing-mode:lr-tb;fill:#1f77b4;fill-opacity:1;fill-rule:nonzero;stroke:none"
         transform="matrix(1,0,0,-1,63.50763,94.169347)"><tspan
           id="tspan466"
           y="0"
           x="0 3.6099999 9.9700003 16.33 19.51">-16.6</tspan></text>
<text
         id="text472"
         style="font-variant:normal;font-weight:normal;font-size:10px;font-family:'DejaVu Sans';-inkscape-font-specification:DejaVuSans;writing-mode:lr-tb;fill:#000000;fill-opacity:1;fill-rule:nonzero;stroke:none"
         transform="matrix(1,0,0,-1,143.18809,104.21741)"><tspan
           id="tspan470"
           y="0"
           x="0 5.75 8.5299997 14.65 22.83 28.98 33.09 38.299999 44.66 51.02">Flowers102</tspan></text>
<text
         id="text476"
         style="font-variant:normal;font-weight:normal;font-size:10px;font-family:'DejaVu Sans';-inkscape-font-specification:DejaVuSans;writing-mode:lr-tb;fill:#1f77b4;fill-opacity:1;fill-rule:nonzero;stroke:none"
         transform="matrix(1,0,0,-1,75.54058,104.21741)"><tspan
           id="tspan474"
           y="0"
           x="0 3.6099999 9.9700003 16.33 19.51">-12.5</tspan></text>
<text
         id="text480"
         style="font-variant:normal;font-weight:normal;font-size:10px;font-family:'DejaVu Sans';-inkscape-font-specification:DejaVuSans;writing-mode:lr-tb;fill:#000000;fill-opacity:1;fill-rule:nonzero;stroke:none"
         transform="matrix(1,0,0,-1,143.18809,114.26547)"><tspan
           id="tspan478"
           y="0"
           x="0 6.9499998 13.27 19.620001 22.57 28.92 35.900002 42.259998">RESISC45</tspan></text>
<text
         id="text484"
         style="font-variant:normal;font-weight:normal;font-size:10px;font-family:'DejaVu Sans';-inkscape-font-specification:DejaVuSans;writing-mode:lr-tb;fill:#1f77b4;fill-opacity:1;fill-rule:nonzero;stroke:none"
         transform="matrix(1,0,0,-1,77.419088,114.26547)"><tspan
           id="tspan482"
           y="0"
           x="0 3.6099999 9.9700003 16.33 19.51">-11.9</tspan></text>
<text
         id="text488"
         style="font-variant:normal;font-weight:normal;font-size:10px;font-family:'DejaVu Sans';-inkscape-font-specification:DejaVuSans;writing-mode:lr-tb;fill:#000000;fill-opacity:1;fill-rule:nonzero;stroke:none"
         transform="matrix(1,0,0,-1,143.18809,124.31352)"><tspan
           id="tspan486"
           y="0"
           x="0 5.75 13.5 20.34 27.32 34.16 36.939999 41.049999 46.549999 50.66 56.790001 60.310001">FGVCAircraft</tspan></text>
<text
         id="text492"
         style="font-variant:normal;font-weight:normal;font-size:10px;font-family:'DejaVu Sans';-inkscape-font-specification:DejaVuSans;writing-mode:lr-tb;fill:#1f77b4;fill-opacity:1;fill-rule:nonzero;stroke:none"
         transform="matrix(1,0,0,-1,79.219502,124.31352)"><tspan
           id="tspan490"
           y="0"
           x="0 3.6099999 9.9700003 16.33 19.51">-11.3</tspan></text>
<text
         id="text496"
         style="font-variant:normal;font-weight:normal;font-size:10px;font-family:'DejaVu Sans';-inkscape-font-specification:DejaVuSans;writing-mode:lr-tb;fill:#000000;fill-opacity:1;fill-rule:nonzero;stroke:none"
         transform="matrix(1,0,0,-1,143.18809,134.36158)"><tspan
           id="tspan494"
           y="0"
           x="0 8.6300001 16.110001 19.059999 25.41">MNIST</tspan></text>
<text
         id="text500"
         style="font-variant:normal;font-weight:normal;font-size:10px;font-family:'DejaVu Sans';-inkscape-font-specification:DejaVuSans;writing-mode:lr-tb;fill:#1f77b4;fill-opacity:1;fill-rule:nonzero;stroke:none"
         transform="matrix(1,0,0,-1,83.203085,134.36158)"><tspan
           id="tspan498"
           y="0"
           x="0 3.6099999 9.9700003 16.33 19.51">-10.0</tspan></text>
<text
         id="text504"
         style="font-variant:normal;font-weight:normal;font-size:10px;font-family:'DejaVu Sans';-inkscape-font-specification:DejaVuSans;writing-mode:lr-tb;fill:#000000;fill-opacity:1;fill-rule:nonzero;stroke:none"
         transform="matrix(1,0,0,-1,143.18809,144.40964)"><tspan
           id="tspan502"
           y="0"
           x="0 6.8600001 9.6400003 13.75 20.1 25.309999 31.65 37.779999">Birdsnap</tspan></text>
<text
         id="text508"
         style="font-variant:normal;font-weight:normal;font-size:10px;font-family:'DejaVu Sans';-inkscape-font-specification:DejaVuSans;writing-mode:lr-tb;fill:#1f77b4;fill-opacity:1;fill-rule:nonzero;stroke:none"
         transform="matrix(1,0,0,-1,110.0516,144.40964)"><tspan
           id="tspan506"
           y="0"
           x="0 3.6099999 9.9700003 13.15">-3.2</tspan></text>
<text
         id="text512"
         style="font-variant:normal;font-weight:normal;font-size:10px;font-family:'DejaVu Sans';-inkscape-font-specification:DejaVuSans;writing-mode:lr-tb;fill:#2ca02c;fill-opacity:1;fill-rule:nonzero;stroke:none"
         transform="matrix(1,0,0,-1,142.09852,154.4577)"><tspan
           id="tspan510"
           y="0"
           x="0 8.3800001 14.74 17.92">+0.5</tspan></text>
<text
         id="text516"
         style="font-variant:normal;font-weight:normal;font-size:10px;font-family:'DejaVu Sans';-inkscape-font-specification:DejaVuSans;writing-mode:lr-tb;fill:#000000;fill-opacity:1;fill-rule:nonzero;stroke:none"
         transform="matrix(1,0,0,-1,58.33004,154.4577)"><tspan
           id="tspan514"
           y="0"
           x="0 6.0300002 12.16 17.370001 22.870001 29 31.780001 38.619999 46.490002 53.470001 59.830002 66.190002 72.550003">PascalVOC2007</tspan></text>
<text
         id="text520"
         style="font-variant:normal;font-weight:normal;font-size:10px;font-family:'DejaVu Sans';-inkscape-font-specification:DejaVuSans;writing-mode:lr-tb;fill:#2ca02c;fill-opacity:1;fill-rule:nonzero;stroke:none"
         transform="matrix(1,0,0,-1,143.90981,164.50576)"><tspan
           id="tspan518"
           y="0"
           x="0 8.3800001 14.74 17.92">+1.1</tspan></text>
<text
         id="text524"
         style="font-variant:normal;font-weight:normal;font-size:10px;font-family:'DejaVu Sans';-inkscape-font-specification:DejaVuSans;writing-mode:lr-tb;fill:#000000;fill-opacity:1;fill-rule:nonzero;stroke:none"
         transform="matrix(1,0,0,-1,82.033165,164.50576)"><tspan
           id="tspan522"
           y="0"
           x="0 7.8699999 13.79 17.309999 23.43 27.540001 33.889999 39.919998 46.07 49.990002">OxfordPets</tspan></text>
<text
         id="text528"
         style="font-variant:normal;font-weight:normal;font-size:10px;font-family:'DejaVu Sans';-inkscape-font-specification:DejaVuSans;writing-mode:lr-tb;fill:#2ca02c;fill-opacity:1;fill-rule:nonzero;stroke:none"
         transform="matrix(1,0,0,-1,146.27489,174.55382)"><tspan
           id="tspan526"
           y="0"
           x="0 8.3800001 14.74 17.92">+1.9</tspan></text>
<text
         id="text532"
         style="font-variant:normal;font-weight:normal;font-size:10px;font-family:'DejaVu Sans';-inkscape-font-specification:DejaVuSans;writing-mode:lr-tb;fill:#000000;fill-opacity:1;fill-rule:nonzero;stroke:none"
         transform="matrix(1,0,0,-1,88.36129,174.55382)"><tspan
           id="tspan530"
           y="0"
           x="0 2.95 12.69 18.82 25.17 31.32 38.799999 44.950001">ImageNet</tspan></text>
<text
         id="text536"
         style="font-variant:normal;font-weight:normal;font-size:10px;font-family:'DejaVu Sans';-inkscape-font-specification:DejaVuSans;writing-mode:lr-tb;fill:#2ca02c;fill-opacity:1;fill-rule:nonzero;stroke:none"
         transform="matrix(1,0,0,-1,146.35778,184.60188)"><tspan
           id="tspan534"
           y="0"
           x="0 8.3800001 14.74 17.92">+2.0</tspan></text>
<text
         id="text540"
         style="font-variant:normal;font-weight:normal;font-size:10px;font-family:'DejaVu Sans';-inkscape-font-specification:DejaVuSans;writing-mode:lr-tb;fill:#000000;fill-opacity:1;fill-rule:nonzero;stroke:none"
         transform="matrix(1,0,0,-1,80.36129,184.60188)"><tspan
           id="tspan538"
           y="0"
           x="0 6.98 13.11 15.89 19.809999 25.959999 31.459999 37.799999 44.16 50.52">Caltech101</tspan></text>
<text
         id="text544"
         style="font-variant:normal;font-weight:normal;font-size:10px;font-family:'DejaVu Sans';-inkscape-font-specification:DejaVuSans;writing-mode:lr-tb;fill:#2ca02c;fill-opacity:1;fill-rule:nonzero;stroke:none"
         transform="matrix(1,0,0,-1,148.70406,194.64994)"><tspan
           id="tspan542"
           y="0"
           x="0 8.3800001 14.74 17.92">+2.8</tspan></text>
<text
         id="text548"
         style="font-variant:normal;font-weight:normal;font-size:10px;font-family:'DejaVu Sans';-inkscape-font-specification:DejaVuSans;writing-mode:lr-tb;fill:#000000;fill-opacity:1;fill-rule:nonzero;stroke:none"
         transform="matrix(1,0,0,-1,92.79879,194.64994)"><tspan
           id="tspan546"
           y="0"
           x="0 5.75 12.07 19.02 25.379999 31.74 38.099998">FER2013</tspan></text>
<text
         id="text552"
         style="font-variant:normal;font-weight:normal;font-size:10px;font-family:'DejaVu Sans';-inkscape-font-specification:DejaVuSans;writing-mode:lr-tb;fill:#2ca02c;fill-opacity:1;fill-rule:nonzero;stroke:none"
         transform="matrix(1,0,0,-1,149.41735,204.698)"><tspan
           id="tspan550"
           y="0"
           x="0 8.3800001 14.74 17.92">+3.0</tspan></text>
<text
         id="text556"
         style="font-variant:normal;font-weight:normal;font-size:10px;font-family:'DejaVu Sans';-inkscape-font-specification:DejaVuSans;writing-mode:lr-tb;fill:#000000;fill-opacity:1;fill-rule:nonzero;stroke:none"
         transform="matrix(1,0,0,-1,106.50191,204.698)"><tspan
           id="tspan554"
           y="0"
           x="0 6.3499999 12.46 18.030001 24.389999">STL10</tspan></text>
<text
         id="text560"
         style="font-variant:normal;font-weight:normal;font-size:10px;font-family:'DejaVu Sans';-inkscape-font-specification:DejaVuSans;writing-mode:lr-tb;fill:#2ca02c;fill-opacity:1;fill-rule:nonzero;stroke:none"
         transform="matrix(1,0,0,-1,149.45074,214.74606)"><tspan
           id="tspan558"
           y="0"
           x="0 8.3800001 14.74 17.92">+3.0</tspan></text>
<text
         id="text564"
         style="font-variant:normal;font-weight:normal;font-size:10px;font-family:'DejaVu Sans';-inkscape-font-specification:DejaVuSans;writing-mode:lr-tb;fill:#000000;fill-opacity:1;fill-rule:nonzero;stroke:none"
         transform="matrix(1,0,0,-1,88.689415,214.74606)"><tspan
           id="tspan562"
           y="0"
           x="0 6.98 9.9300003 15.68 22.52 29.469999 35.830002 42.189999">CIFAR100</tspan></text>
<text
         id="text568"
         style="font-variant:normal;font-weight:normal;font-size:10px;font-family:'DejaVu Sans';-inkscape-font-specification:DejaVuSans;writing-mode:lr-tb;fill:#2ca02c;fill-opacity:1;fill-rule:nonzero;stroke:none"
         transform="matrix(1,0,0,-1,152.0033,224.79412)"><tspan
           id="tspan566"
           y="0"
           x="0 8.3800001 14.74 17.92">+3.9</tspan></text>
<text
         id="text572"
         style="font-variant:normal;font-weight:normal;font-size:10px;font-family:'DejaVu Sans';-inkscape-font-specification:DejaVuSans;writing-mode:lr-tb;fill:#000000;fill-opacity:1;fill-rule:nonzero;stroke:none"
         transform="matrix(1,0,0,-1,95.04879,224.79412)"><tspan
           id="tspan570"
           y="0"
           x="0 6.98 9.9300003 15.68 22.52 29.469999 35.830002">CIFAR10</tspan></text>
<text
         id="text576"
         style="font-variant:normal;font-weight:normal;font-size:10px;font-family:'DejaVu Sans';-inkscape-font-specification:DejaVuSans;writing-mode:lr-tb;fill:#2ca02c;fill-opacity:1;fill-rule:nonzero;stroke:none"
         transform="matrix(1,0,0,-1,160.52408,234.84218)"><tspan
           id="tspan574"
           y="0"
           x="0 8.3800001 14.74 17.92">+6.7</tspan></text>
<text
         id="text580"
         style="font-variant:normal;font-weight:normal;font-size:10px;font-family:'DejaVu Sans';-inkscape-font-specification:DejaVuSans;writing-mode:lr-tb;fill:#000000;fill-opacity:1;fill-rule:nonzero;stroke:none"
         transform="matrix(1,0,0,-1,64.98629,234.84218)"><tspan
           id="tspan578"
           y="0"
           x="0 7.52 13.65 17.57 23.719999 27.24 33.580002 36.360001 44.990002 51.139999 60.880001 67.029999">HatefulMemes</tspan></text>
<text
         id="text584"
         style="font-variant:normal;font-weight:normal;font-size:10px;font-family:'DejaVu Sans';-inkscape-font-specification:DejaVuSans;writing-mode:lr-tb;fill:#2ca02c;fill-opacity:1;fill-rule:nonzero;stroke:none"
         transform="matrix(1,0,0,-1,163.37624,244.89023)"><tspan
           id="tspan582"
           y="0"
           x="0 8.3800001 14.74 17.92">+7.7</tspan></text>
<text
         id="text588"
         style="font-variant:normal;font-weight:normal;font-size:10px;font-family:'DejaVu Sans';-inkscape-font-specification:DejaVuSans;writing-mode:lr-tb;fill:#000000;fill-opacity:1;fill-rule:nonzero;stroke:none"
         transform="matrix(1,0,0,-1,98.11129,244.89023)"><tspan
           id="tspan586"
           y="0"
           x="0 7.3200002 14.3 20.049999 26.41 32.77">UCF101</tspan></text>
<text
         id="text592"
         style="font-variant:normal;font-weight:normal;font-size:10px;font-family:'DejaVu Sans';-inkscape-font-specification:DejaVuSans;writing-mode:lr-tb;fill:#2ca02c;fill-opacity:1;fill-rule:nonzero;stroke:none"
         transform="matrix(1,0,0,-1,163.81291,254.93829)"><tspan
           id="tspan590"
           y="0"
           x="0 8.3800001 14.74 17.92">+7.8</tspan></text>
<text
         id="text596"
         style="font-variant:normal;font-weight:normal;font-size:10px;font-family:'DejaVu Sans';-inkscape-font-specification:DejaVuSans;writing-mode:lr-tb;fill:#000000;fill-opacity:1;fill-rule:nonzero;stroke:none"
         transform="matrix(1,0,0,-1,97.01754,254.93829)"><tspan
           id="tspan594"
           y="0"
           x="0 6.3499999 13.67 21.15 27.51 33.869999">SUN397</tspan></text>
<text
         id="text600"
         style="font-variant:normal;font-weight:normal;font-size:10px;font-family:'DejaVu Sans';-inkscape-font-specification:DejaVuSans;writing-mode:lr-tb;fill:#2ca02c;fill-opacity:1;fill-rule:nonzero;stroke:none"
         transform="matrix(1,0,0,-1,177.35301,264.98635)"><tspan
           id="tspan598"
           y="0"
           x="0 8.3800001 14.74 21.1 24.280001">+12.4</tspan></text>
<text
         id="text604"
         style="font-variant:normal;font-weight:normal;font-size:10px;font-family:'DejaVu Sans';-inkscape-font-specification:DejaVuSans;writing-mode:lr-tb;fill:#000000;fill-opacity:1;fill-rule:nonzero;stroke:none"
         transform="matrix(1,0,0,-1,112.09566,264.98635)"><tspan
           id="tspan602"
           y="0"
           x="0 6.3499999 12.7 18.809999">SST2</tspan></text>
<text
         id="text608"
         style="font-variant:normal;font-weight:normal;font-size:10px;font-family:'DejaVu Sans';-inkscape-font-specification:DejaVuSans;writing-mode:lr-tb;fill:#2ca02c;fill-opacity:1;fill-rule:nonzero;stroke:none"
         transform="matrix(1,0,0,-1,183.59617,275.03441)"><tspan
           id="tspan606"
           y="0"
           x="0 8.3800001 14.74 21.1 24.280001">+14.5</tspan></text>
<text
         id="text612"
         style="font-variant:normal;font-weight:normal;font-size:10px;font-family:'DejaVu Sans';-inkscape-font-specification:DejaVuSans;writing-mode:lr-tb;fill:#000000;fill-opacity:1;fill-rule:nonzero;stroke:none"
         transform="matrix(1,0,0,-1,78.908165,275.03441)"><tspan
           id="tspan610"
           y="0"
           x="0 6.5599999 9.3400002 15.68 21.83 25.75 28.530001 34.029999 39.240002 45.599998 51.959999">Kinetics700</tspan></text>
<text
         id="text616"
         style="font-variant:normal;font-weight:normal;font-size:10px;font-family:'DejaVu Sans';-inkscape-font-specification:DejaVuSans;writing-mode:lr-tb;fill:#2ca02c;fill-opacity:1;fill-rule:nonzero;stroke:none"
         transform="matrix(1,0,0,-1,207.37807,285.08247)"><tspan
           id="tspan614"
           y="0"
           x="0 8.3800001 14.74 21.1 24.280001">+22.5</tspan></text>
<text
         id="text620"
         style="font-variant:normal;font-weight:normal;font-size:10px;font-family:'DejaVu Sans';-inkscape-font-specification:DejaVuSans;writing-mode:lr-tb;fill:#000000;fill-opacity:1;fill-rule:nonzero;stroke:none"
         transform="matrix(1,0,0,-1,93.83004,285.08247)"><tspan
           id="tspan618"
           y="0"
           x="0 5.75 11.87 17.99 24.34 30.700001 37.060001">Food101</tspan></text>
<text
         id="text624"
         style="font-variant:normal;font-weight:normal;font-size:10px;font-family:'DejaVu Sans';-inkscape-font-specification:DejaVuSans;writing-mode:lr-tb;fill:#2ca02c;fill-opacity:1;fill-rule:nonzero;stroke:none"
         transform="matrix(1,0,0,-1,209.4017,295.13053)"><tspan
           id="tspan622"
           y="0"
           x="0 8.3800001 14.74 21.1 24.280001">+23.2</tspan></text>
<text
         id="text628"
         style="font-variant:normal;font-weight:normal;font-size:10px;font-family:'DejaVu Sans';-inkscape-font-specification:DejaVuSans;writing-mode:lr-tb;fill:#000000;fill-opacity:1;fill-rule:nonzero;stroke:none"
         transform="matrix(1,0,0,-1,78.42379,295.13053)"><tspan
           id="tspan626"
           y="0"
           x="0 6.98 13.1 19.440001 25.780001 29.700001 33.810001 39.73 46.09 52.450001">Country211</tspan></text>
<text
         id="text632"
         style="font-variant:normal;font-weight:normal;font-size:10px;font-family:'DejaVu Sans';-inkscape-font-specification:DejaVuSans;writing-mode:lr-tb;fill:#2ca02c;fill-opacity:1;fill-rule:nonzero;stroke:none"
         transform="matrix(1,0,0,-1,226.30004,305.17859)"><tspan
           id="tspan630"
           y="0"
           x="0 8.3800001 14.74 21.1 24.280001">+28.9</tspan></text>
<text
         id="text636"
         style="font-variant:normal;font-weight:normal;font-size:10px;font-family:'DejaVu Sans';-inkscape-font-specification:DejaVuSans;writing-mode:lr-tb;fill:#000000;fill-opacity:1;fill-rule:nonzero;stroke:none"
         transform="matrix(1,0,0,-1,71.98629,305.17859)"><tspan
           id="tspan634"
           y="0"
           x="0 6.3499999 10.27 16.4 22.74 26.26 32.380001 36.490002 42.84 49.82 55.950001 60.060001">StanfordCars</tspan></text>
</g></g></svg>