<?xml version="1.0" encoding="UTF-8" standalone="no"?>
<svg
   xmlns:dc="http://purl.org/dc/elements/1.1/"
   xmlns:cc="http://creativecommons.org/ns#"
   xmlns:rdf="http://www.w3.org/1999/02/22-rdf-syntax-ns#"
   xmlns:svg="http://www.w3.org/2000/svg"
   xmlns="http://www.w3.org/2000/svg"
   viewBox="0 0 378.44403 419.69916"
   height="419.69916"
   width="378.44403"
   xml:space="preserve"
   id="svg2"
   version="1.1"><metadata
     id="metadata8"><rdf:RDF><cc:Work
         rdf:about=""><dc:format>image/svg+xml</dc:format><dc:type
           rdf:resource="http://purl.org/dc/dcmitype/StillImage" /></cc:Work></rdf:RDF></metadata><defs
     id="defs6"><clipPath
       id="clipPath22"
       clipPathUnits="userSpaceOnUse"><path
         id="path20"
         d="M 4.1130288,42.254375 H 283.11303 V 314.05437 H 4.1130288 Z" /></clipPath><clipPath
       id="clipPath32"
       clipPathUnits="userSpaceOnUse"><path
         id="path30"
         d="M 4.1130288,42.254375 H 283.11303 V 314.05437 H 4.1130288 Z" /></clipPath><clipPath
       id="clipPath42"
       clipPathUnits="userSpaceOnUse"><path
         id="path40"
         d="M 4.1130288,42.254375 H 283.11303 V 314.05437 H 4.1130288 Z" /></clipPath><clipPath
       id="clipPath52"
       clipPathUnits="userSpaceOnUse"><path
         id="path50"
         d="M 4.1130288,42.254375 H 283.11303 V 314.05437 H 4.1130288 Z" /></clipPath><clipPath
       id="clipPath62"
       clipPathUnits="userSpaceOnUse"><path
         id="path60"
         d="M 4.1130288,42.254375 H 283.11303 V 314.05437 H 4.1130288 Z" /></clipPath><clipPath
       id="clipPath72"
       clipPathUnits="userSpaceOnUse"><path
         id="path70"
         d="M 4.1130288,42.254375 H 283.11303 V 314.05437 H 4.1130288 Z" /></clipPath><clipPath
       id="clipPath82"
       clipPathUnits="userSpaceOnUse"><path
         id="path80"
         d="M 4.1130288,42.254375 H 283.11303 V 314.05437 H 4.1130288 Z" /></clipPath><clipPath
       id="clipPath92"
       clipPathUnits="userSpaceOnUse"><path
         id="path90"
         d="M 4.1130288,42.254375 H 283.11303 V 314.05437 H 4.1130288 Z" /></clipPath><clipPath
       id="clipPath102"
       clipPathUnits="userSpaceOnUse"><path
         id="path100"
         d="M 4.1130288,42.254375 H 283.11303 V 314.05437 H 4.1130288 Z" /></clipPath><clipPath
       id="clipPath112"
       clipPathUnits="userSpaceOnUse"><path
         id="path110"
         d="M 4.1130288,42.254375 H 283.11303 V 314.05437 H 4.1130288 Z" /></clipPath><clipPath
       id="clipPath122"
       clipPathUnits="userSpaceOnUse"><path
         id="path120"
         d="M 4.1130288,42.254375 H 283.11303 V 314.05437 H 4.1130288 Z" /></clipPath><clipPath
       id="clipPath132"
       clipPathUnits="userSpaceOnUse"><path
         id="path130"
         d="M 4.1130288,42.254375 H 283.11303 V 314.05437 H 4.1130288 Z" /></clipPath><clipPath
       id="clipPath142"
       clipPathUnits="userSpaceOnUse"><path
         id="path140"
         d="M 4.1130288,42.254375 H 283.11303 V 314.05437 H 4.1130288 Z" /></clipPath><clipPath
       id="clipPath152"
       clipPathUnits="userSpaceOnUse"><path
         id="path150"
         d="M 4.1130288,42.254375 H 283.11303 V 314.05437 H 4.1130288 Z" /></clipPath><clipPath
       id="clipPath162"
       clipPathUnits="userSpaceOnUse"><path
         id="path160"
         d="M 4.1130288,42.254375 H 283.11303 V 314.05437 H 4.1130288 Z" /></clipPath><clipPath
       id="clipPath172"
       clipPathUnits="userSpaceOnUse"><path
         id="path170"
         d="M 4.1130288,42.254375 H 283.11303 V 314.05437 H 4.1130288 Z" /></clipPath><clipPath
       id="clipPath182"
       clipPathUnits="userSpaceOnUse"><path
         id="path180"
         d="M 4.1130288,42.254375 H 283.11303 V 314.05437 H 4.1130288 Z" /></clipPath><clipPath
       id="clipPath192"
       clipPathUnits="userSpaceOnUse"><path
         id="path190"
         d="M 4.1130288,42.254375 H 283.11303 V 314.05437 H 4.1130288 Z" /></clipPath><clipPath
       id="clipPath202"
       clipPathUnits="userSpaceOnUse"><path
         id="path200"
         d="M 4.1130288,42.254375 H 283.11303 V 314.05437 H 4.1130288 Z" /></clipPath><clipPath
       id="clipPath212"
       clipPathUnits="userSpaceOnUse"><path
         id="path210"
         d="M 4.1130288,42.254375 H 283.11303 V 314.05437 H 4.1130288 Z" /></clipPath><clipPath
       id="clipPath222"
       clipPathUnits="userSpaceOnUse"><path
         id="path220"
         d="M 4.1130288,42.254375 H 283.11303 V 314.05437 H 4.1130288 Z" /></clipPath><clipPath
       id="clipPath232"
       clipPathUnits="userSpaceOnUse"><path
         id="path230"
         d="M 4.1130288,42.254375 H 283.11303 V 314.05437 H 4.1130288 Z" /></clipPath><clipPath
       id="clipPath242"
       clipPathUnits="userSpaceOnUse"><path
         id="path240"
         d="M 4.1130288,42.254375 H 283.11303 V 314.05437 H 4.1130288 Z" /></clipPath><clipPath
       id="clipPath252"
       clipPathUnits="userSpaceOnUse"><path
         id="path250"
         d="M 4.1130288,42.254375 H 283.11303 V 314.05437 H 4.1130288 Z" /></clipPath><clipPath
       id="clipPath262"
       clipPathUnits="userSpaceOnUse"><path
         id="path260"
         d="M 4.1130288,42.254375 H 283.11303 V 314.05437 H 4.1130288 Z" /></clipPath><clipPath
       id="clipPath272"
       clipPathUnits="userSpaceOnUse"><path
         id="path270"
         d="M 4.1130288,42.254375 H 283.11303 V 314.05437 H 4.1130288 Z" /></clipPath><clipPath
       id="clipPath282"
       clipPathUnits="userSpaceOnUse"><path
         id="path280"
         d="M 4.1130288,42.254375 H 283.11303 V 314.05437 H 4.1130288 Z" /></clipPath><clipPath
       id="clipPath304"
       clipPathUnits="userSpaceOnUse"><path
         id="path302"
         d="M -1021,-463 H 1794 V 1233 H -1021 Z" /></clipPath><clipPath
       id="clipPath324"
       clipPathUnits="userSpaceOnUse"><path
         id="path322"
         d="M -1021,-463 H 1794 V 1233 H -1021 Z" /></clipPath><clipPath
       id="clipPath378"
       clipPathUnits="userSpaceOnUse"><path
         id="path376"
         d="M -1021,-463 H 1794 V 1233 H -1021 Z" /></clipPath></defs><g
     transform="matrix(1.3333333,0,0,-1.3333333,0,419.69917)"
     id="g10"><path
       id="path12"
       style="fill:#ffffff;fill-opacity:1;fill-rule:nonzero;stroke:none"
       d="M 0,0 H 283.83303 V 314.77437 H 0 Z" /><path
       id="path14"
       style="fill:#ffffff;fill-opacity:1;fill-rule:nonzero;stroke:none"
       d="M 4.113029,42.254375 H 283.11303 V 314.05437 H 4.113029 Z" /><g
       id="g16"><g
         clip-path="url(#clipPath22)"
         id="g18"><path
           id="path24"
           style="fill:#1f77b4;fill-opacity:1;fill-rule:nonzero;stroke:#000000;stroke-width:1;stroke-linecap:butt;stroke-linejoin:miter;stroke-miterlimit:10;stroke-dasharray:none;stroke-opacity:1"
           d="m 82.805337,42.254375 h -21.576 v 10.048059 h 21.576 z" /></g></g><g
       id="g26"><g
         clip-path="url(#clipPath32)"
         id="g28"><path
           id="path34"
           style="fill:#1f77b4;fill-opacity:1;fill-rule:nonzero;stroke:#000000;stroke-width:1;stroke-linecap:butt;stroke-linejoin:miter;stroke-miterlimit:10;stroke-dasharray:none;stroke-opacity:1"
           d="M 82.805337,52.302434 H 65.349952 v 10.048059 h 17.455385 z" /></g></g><g
       id="g36"><g
         clip-path="url(#clipPath42)"
         id="g38"><path
           id="path44"
           style="fill:#1f77b4;fill-opacity:1;fill-rule:nonzero;stroke:#000000;stroke-width:1;stroke-linecap:butt;stroke-linejoin:miter;stroke-miterlimit:10;stroke-dasharray:none;stroke-opacity:1"
           d="M 82.805337,62.350493 H 70.858413 v 10.048059 h 11.946924 z" /></g></g><g
       id="g46"><g
         clip-path="url(#clipPath52)"
         id="g48"><path
           id="path54"
           style="fill:#1f77b4;fill-opacity:1;fill-rule:nonzero;stroke:#000000;stroke-width:1;stroke-linecap:butt;stroke-linejoin:miter;stroke-miterlimit:10;stroke-dasharray:none;stroke-opacity:1"
           d="m 82.805337,72.398552 h -8.732723 v 10.04806 h 8.732723 z" /></g></g><g
       id="g56"><g
         clip-path="url(#clipPath62)"
         id="g58"><path
           id="path64"
           style="fill:#1f77b4;fill-opacity:1;fill-rule:nonzero;stroke:#000000;stroke-width:1;stroke-linecap:butt;stroke-linejoin:miter;stroke-miterlimit:10;stroke-dasharray:none;stroke-opacity:1"
           d="m 82.805337,82.446612 h -5.937693 v 10.048059 h 5.937693 z" /></g></g><g
       id="g66"><g
         clip-path="url(#clipPath72)"
         id="g68"><path
           id="path74"
           style="fill:#1f77b4;fill-opacity:1;fill-rule:nonzero;stroke:#000000;stroke-width:1;stroke-linecap:butt;stroke-linejoin:miter;stroke-miterlimit:10;stroke-dasharray:none;stroke-opacity:1"
           d="m 82.805337,92.494671 h -3.553216 v 10.048059 h 3.553216 z" /></g></g><g
       id="g76"><g
         clip-path="url(#clipPath82)"
         id="g78"><path
           id="path84"
           style="fill:#2ca02c;fill-opacity:1;fill-rule:nonzero;stroke:#000000;stroke-width:1;stroke-linecap:butt;stroke-linejoin:miter;stroke-miterlimit:10;stroke-dasharray:none;stroke-opacity:1"
           d="m 82.805337,102.54273 h 0.169903 v 10.04806 h -0.169903 z" /></g></g><g
       id="g86"><g
         clip-path="url(#clipPath92)"
         id="g88"><path
           id="path94"
           style="fill:#2ca02c;fill-opacity:1;fill-rule:nonzero;stroke:#000000;stroke-width:1;stroke-linecap:butt;stroke-linejoin:miter;stroke-miterlimit:10;stroke-dasharray:none;stroke-opacity:1"
           d="m 82.805337,112.59079 h 3.263421 v 10.04806 h -3.263421 z" /></g></g><g
       id="g96"><g
         clip-path="url(#clipPath102)"
         id="g98"><path
           id="path104"
           style="fill:#2ca02c;fill-opacity:1;fill-rule:nonzero;stroke:#000000;stroke-width:1;stroke-linecap:butt;stroke-linejoin:miter;stroke-miterlimit:10;stroke-dasharray:none;stroke-opacity:1"
           d="m 82.805337,122.63885 h 3.805237 v 10.04806 h -3.805237 z" /></g></g><g
       id="g106"><g
         clip-path="url(#clipPath112)"
         id="g108"><path
           id="path114"
           style="fill:#2ca02c;fill-opacity:1;fill-rule:nonzero;stroke:#000000;stroke-width:1;stroke-linecap:butt;stroke-linejoin:miter;stroke-miterlimit:10;stroke-dasharray:none;stroke-opacity:1"
           d="m 82.805337,132.68691 h 4.578461 v 10.04806 h -4.578461 z" /></g></g><g
       id="g116"><g
         clip-path="url(#clipPath122)"
         id="g118"><path
           id="path124"
           style="fill:#2ca02c;fill-opacity:1;fill-rule:nonzero;stroke:#000000;stroke-width:1;stroke-linecap:butt;stroke-linejoin:miter;stroke-miterlimit:10;stroke-dasharray:none;stroke-opacity:1"
           d="m 82.805337,142.73497 h 6.152307 v 10.04806 h -6.152307 z" /></g></g><g
       id="g126"><g
         clip-path="url(#clipPath132)"
         id="g128"><path
           id="path134"
           style="fill:#2ca02c;fill-opacity:1;fill-rule:nonzero;stroke:#000000;stroke-width:1;stroke-linecap:butt;stroke-linejoin:miter;stroke-miterlimit:10;stroke-dasharray:none;stroke-opacity:1"
           d="m 82.805337,152.78303 h 9.505066 v 10.04805 h -9.505066 z" /></g></g><g
       id="g136"><g
         clip-path="url(#clipPath142)"
         id="g138"><path
           id="path144"
           style="fill:#2ca02c;fill-opacity:1;fill-rule:nonzero;stroke:#000000;stroke-width:1;stroke-linecap:butt;stroke-linejoin:miter;stroke-miterlimit:10;stroke-dasharray:none;stroke-opacity:1"
           d="m 82.805337,162.83108 h 9.892383 v 10.04806 h -9.892383 z" /></g></g><g
       id="g146"><g
         clip-path="url(#clipPath152)"
         id="g148"><path
           id="path154"
           style="fill:#2ca02c;fill-opacity:1;fill-rule:nonzero;stroke:#000000;stroke-width:1;stroke-linecap:butt;stroke-linejoin:miter;stroke-miterlimit:10;stroke-dasharray:none;stroke-opacity:1"
           d="M 82.805337,172.87914 H 93.124984 V 182.9272 H 82.805337 Z" /></g></g><g
       id="g156"><g
         clip-path="url(#clipPath162)"
         id="g158"><path
           id="path164"
           style="fill:#2ca02c;fill-opacity:1;fill-rule:nonzero;stroke:#000000;stroke-width:1;stroke-linecap:butt;stroke-linejoin:miter;stroke-miterlimit:10;stroke-dasharray:none;stroke-opacity:1"
           d="m 82.805337,182.9272 h 16.098669 v 10.04806 H 82.805337 Z" /></g></g><g
       id="g166"><g
         clip-path="url(#clipPath172)"
         id="g168"><path
           id="path174"
           style="fill:#2ca02c;fill-opacity:1;fill-rule:nonzero;stroke:#000000;stroke-width:1;stroke-linecap:butt;stroke-linejoin:miter;stroke-miterlimit:10;stroke-dasharray:none;stroke-opacity:1"
           d="m 82.805337,192.97526 h 22.218793 v 10.04806 H 82.805337 Z" /></g></g><g
       id="g176"><g
         clip-path="url(#clipPath182)"
         id="g178"><path
           id="path184"
           style="fill:#2ca02c;fill-opacity:1;fill-rule:nonzero;stroke:#000000;stroke-width:1;stroke-linecap:butt;stroke-linejoin:miter;stroke-miterlimit:10;stroke-dasharray:none;stroke-opacity:1"
           d="m 82.805337,203.02332 h 22.698483 v 10.04806 H 82.805337 Z" /></g></g><g
       id="g186"><g
         clip-path="url(#clipPath192)"
         id="g188"><path
           id="path194"
           style="fill:#2ca02c;fill-opacity:1;fill-rule:nonzero;stroke:#000000;stroke-width:1;stroke-linecap:butt;stroke-linejoin:miter;stroke-miterlimit:10;stroke-dasharray:none;stroke-opacity:1"
           d="m 82.805337,213.07138 h 28.048743 v 10.04806 H 82.805337 Z" /></g></g><g
       id="g196"><g
         clip-path="url(#clipPath202)"
         id="g198"><path
           id="path204"
           style="fill:#2ca02c;fill-opacity:1;fill-rule:nonzero;stroke:#000000;stroke-width:1;stroke-linecap:butt;stroke-linejoin:miter;stroke-miterlimit:10;stroke-dasharray:none;stroke-opacity:1"
           d="M 82.805337,223.11944 H 115.29564 V 233.1675 H 82.805337 Z" /></g></g><g
       id="g206"><g
         clip-path="url(#clipPath212)"
         id="g208"><path
           id="path214"
           style="fill:#2ca02c;fill-opacity:1;fill-rule:nonzero;stroke:#000000;stroke-width:1;stroke-linecap:butt;stroke-linejoin:miter;stroke-miterlimit:10;stroke-dasharray:none;stroke-opacity:1"
           d="M 82.805337,233.1675 H 118.972 v 10.04806 H 82.805337 Z" /></g></g><g
       id="g216"><g
         clip-path="url(#clipPath222)"
         id="g218"><path
           id="path224"
           style="fill:#2ca02c;fill-opacity:1;fill-rule:nonzero;stroke:#000000;stroke-width:1;stroke-linecap:butt;stroke-linejoin:miter;stroke-miterlimit:10;stroke-dasharray:none;stroke-opacity:1"
           d="m 82.805337,243.21556 h 44.625423 v 10.04806 H 82.805337 Z" /></g></g><g
       id="g226"><g
         clip-path="url(#clipPath232)"
         id="g228"><path
           id="path234"
           style="fill:#2ca02c;fill-opacity:1;fill-rule:nonzero;stroke:#000000;stroke-width:1;stroke-linecap:butt;stroke-linejoin:miter;stroke-miterlimit:10;stroke-dasharray:none;stroke-opacity:1"
           d="m 82.805337,253.26362 h 46.671183 v 10.04806 H 82.805337 Z" /></g></g><g
       id="g236"><g
         clip-path="url(#clipPath242)"
         id="g238"><path
           id="path244"
           style="fill:#2ca02c;fill-opacity:1;fill-rule:nonzero;stroke:#000000;stroke-width:1;stroke-linecap:butt;stroke-linejoin:miter;stroke-miterlimit:10;stroke-dasharray:none;stroke-opacity:1"
           d="M 82.805337,263.31168 H 187.87568 v 10.04805 H 82.805337 Z" /></g></g><g
       id="g246"><g
         clip-path="url(#clipPath252)"
         id="g248"><path
           id="path254"
           style="fill:#2ca02c;fill-opacity:1;fill-rule:nonzero;stroke:#000000;stroke-width:1;stroke-linecap:butt;stroke-linejoin:miter;stroke-miterlimit:10;stroke-dasharray:none;stroke-opacity:1"
           d="M 82.805337,273.35973 H 196.86118 v 10.04806 H 82.805337 Z" /></g></g><g
       id="g256"><g
         clip-path="url(#clipPath262)"
         id="g258"><path
           id="path264"
           style="fill:#2ca02c;fill-opacity:1;fill-rule:nonzero;stroke:#000000;stroke-width:1;stroke-linecap:butt;stroke-linejoin:miter;stroke-miterlimit:10;stroke-dasharray:none;stroke-opacity:1"
           d="M 82.805337,283.40779 H 217.65247 v 10.04806 H 82.805337 Z" /></g></g><g
       id="g266"><g
         clip-path="url(#clipPath272)"
         id="g268"><path
           id="path274"
           style="fill:#2ca02c;fill-opacity:1;fill-rule:nonzero;stroke:#000000;stroke-width:1;stroke-linecap:butt;stroke-linejoin:miter;stroke-miterlimit:10;stroke-dasharray:none;stroke-opacity:1"
           d="M 82.805337,293.45585 H 244.93658 v 10.04806 H 82.805337 Z" /></g></g><g
       id="g276"><g
         clip-path="url(#clipPath282)"
         id="g278"><path
           id="path284"
           style="fill:#2ca02c;fill-opacity:1;fill-rule:nonzero;stroke:#000000;stroke-width:1;stroke-linecap:butt;stroke-linejoin:miter;stroke-miterlimit:10;stroke-dasharray:none;stroke-opacity:1"
           d="M 82.805337,303.50391 H 251.33911 v 10.04806 H 82.805337 Z" /></g></g><g
       id="g286"><path
         id="path288"
         style="fill:#000000;fill-opacity:1;fill-rule:nonzero;stroke:#000000;stroke-width:0.80000001;stroke-linecap:butt;stroke-linejoin:round;stroke-miterlimit:10;stroke-dasharray:none;stroke-opacity:1"
         d="m 11.266875,42.254375 v -3.5" /><g
         transform="translate(0.72,27.660625)"
         id="g290"><text
           id="text294"
           style="font-variant:normal;font-weight:normal;font-size:10px;font-family:'DejaVu Sans';-inkscape-font-specification:DejaVuSans;writing-mode:lr-tb;fill:#000000;fill-opacity:1;fill-rule:nonzero;stroke:none"
           transform="matrix(1,0,0,-1,8.3789063,0)"><tspan
             id="tspan292"
             y="0"
             x="0 6.3600001">10</tspan></text>
<g
           transform="scale(0.01)"
           id="g296"><g
             id="g298"><g
               clip-path="url(#clipPath304)"
               id="g300"><path
                 id="path306"
                 style="fill:#000000;fill-opacity:1;fill-rule:nonzero;stroke:none"
                 d="M 106,355 H 732 V 272 H 106 v 83" /></g></g></g></g><path
         id="path308"
         style="fill:#000000;fill-opacity:1;fill-rule:nonzero;stroke:#000000;stroke-width:0.80000001;stroke-linecap:butt;stroke-linejoin:round;stroke-miterlimit:10;stroke-dasharray:none;stroke-opacity:1"
         d="m 47.036106,42.254375 v -3.5" /><g
         transform="translate(39.668918,27.660625)"
         id="g310"><text
           id="text314"
           style="font-variant:normal;font-weight:normal;font-size:10px;font-family:'DejaVu Sans';-inkscape-font-specification:DejaVuSans;writing-mode:lr-tb;fill:#000000;fill-opacity:1;fill-rule:nonzero;stroke:none"
           transform="matrix(1,0,0,-1,8.3789063,0)"><tspan
             id="tspan312"
             y="0"
             x="0">5</tspan></text>
<g
           transform="scale(0.01)"
           id="g316"><g
             id="g318"><g
               clip-path="url(#clipPath324)"
               id="g320"><path
                 id="path326"
                 style="fill:#000000;fill-opacity:1;fill-rule:nonzero;stroke:none"
                 d="M 106,355 H 732 V 272 H 106 v 83" /></g></g></g></g><path
         id="path328"
         style="fill:#000000;fill-opacity:1;fill-rule:nonzero;stroke:#000000;stroke-width:0.80000001;stroke-linecap:butt;stroke-linejoin:round;stroke-miterlimit:10;stroke-dasharray:none;stroke-opacity:1"
         d="m 82.805337,42.254375 v -3.5" /><text
         id="text332"
         style="font-variant:normal;font-weight:normal;font-size:10px;font-family:'DejaVu Sans';-inkscape-font-specification:DejaVuSans;writing-mode:lr-tb;fill:#000000;fill-opacity:1;fill-rule:nonzero;stroke:none"
         transform="matrix(1,0,0,-1,79.625649,27.660625)"><tspan
           id="tspan330"
           y="0"
           x="0">0</tspan></text>
<path
         id="path334"
         style="fill:#000000;fill-opacity:1;fill-rule:nonzero;stroke:#000000;stroke-width:0.80000001;stroke-linecap:butt;stroke-linejoin:round;stroke-miterlimit:10;stroke-dasharray:none;stroke-opacity:1"
         d="m 118.57457,42.254375 v -3.5" /><text
         id="text338"
         style="font-variant:normal;font-weight:normal;font-size:10px;font-family:'DejaVu Sans';-inkscape-font-specification:DejaVuSans;writing-mode:lr-tb;fill:#000000;fill-opacity:1;fill-rule:nonzero;stroke:none"
         transform="matrix(1,0,0,-1,115.39488,27.660625)"><tspan
           id="tspan336"
           y="0"
           x="0">5</tspan></text>
<path
         id="path340"
         style="fill:#000000;fill-opacity:1;fill-rule:nonzero;stroke:#000000;stroke-width:0.80000001;stroke-linecap:butt;stroke-linejoin:round;stroke-miterlimit:10;stroke-dasharray:none;stroke-opacity:1"
         d="m 154.3438,42.254375 v -3.5" /><text
         id="text344"
         style="font-variant:normal;font-weight:normal;font-size:10px;font-family:'DejaVu Sans';-inkscape-font-specification:DejaVuSans;writing-mode:lr-tb;fill:#000000;fill-opacity:1;fill-rule:nonzero;stroke:none"
         transform="matrix(1,0,0,-1,147.98442,27.660625)"><tspan
           id="tspan342"
           y="0"
           x="0 6.3600001">10</tspan></text>
<path
         id="path346"
         style="fill:#000000;fill-opacity:1;fill-rule:nonzero;stroke:#000000;stroke-width:0.80000001;stroke-linecap:butt;stroke-linejoin:round;stroke-miterlimit:10;stroke-dasharray:none;stroke-opacity:1"
         d="m 190.11303,42.254375 v -3.5" /><text
         id="text350"
         style="font-variant:normal;font-weight:normal;font-size:10px;font-family:'DejaVu Sans';-inkscape-font-specification:DejaVuSans;writing-mode:lr-tb;fill:#000000;fill-opacity:1;fill-rule:nonzero;stroke:none"
         transform="matrix(1,0,0,-1,183.75365,27.660625)"><tspan
           id="tspan348"
           y="0"
           x="0 6.3600001">15</tspan></text>
<path
         id="path352"
         style="fill:#000000;fill-opacity:1;fill-rule:nonzero;stroke:#000000;stroke-width:0.80000001;stroke-linecap:butt;stroke-linejoin:round;stroke-miterlimit:10;stroke-dasharray:none;stroke-opacity:1"
         d="m 225.88226,42.254375 v -3.5" /><text
         id="text356"
         style="font-variant:normal;font-weight:normal;font-size:10px;font-family:'DejaVu Sans';-inkscape-font-specification:DejaVuSans;writing-mode:lr-tb;fill:#000000;fill-opacity:1;fill-rule:nonzero;stroke:none"
         transform="matrix(1,0,0,-1,219.52288,27.660625)"><tspan
           id="tspan354"
           y="0"
           x="0 6.3600001">20</tspan></text>
<path
         id="path358"
         style="fill:#000000;fill-opacity:1;fill-rule:nonzero;stroke:#000000;stroke-width:0.80000001;stroke-linecap:butt;stroke-linejoin:round;stroke-miterlimit:10;stroke-dasharray:none;stroke-opacity:1"
         d="m 261.65149,42.254375 v -3.5" /><text
         id="text362"
         style="font-variant:normal;font-weight:normal;font-size:10px;font-family:'DejaVu Sans';-inkscape-font-specification:DejaVuSans;writing-mode:lr-tb;fill:#000000;fill-opacity:1;fill-rule:nonzero;stroke:none"
         transform="matrix(1,0,0,-1,255.29212,27.660625)"><tspan
           id="tspan360"
           y="0"
           x="0 6.3600001">25</tspan></text>
<g
         transform="translate(114.23022,13.98875)"
         id="g364"><text
           id="text368"
           style="font-variant:normal;font-weight:normal;font-size:10px;font-family:'DejaVu Sans';-inkscape-font-specification:DejaVuSans;writing-mode:lr-tb;fill:#000000;fill-opacity:1;fill-rule:nonzero;stroke:none"
           transform="matrix(1,0,0,-1,10.02082,0)"><tspan
             id="tspan366"
             y="0"
             x="0 6.3499999 11.85 17.969999 22.08 28.23 31.41 35.310001 44.810001">Score (%)</tspan></text>
<g
           transform="scale(0.01)"
           id="g370"><g
             id="g372"><g
               clip-path="url(#clipPath378)"
               id="g374"><path
                 id="path380"
                 style="fill:#000000;fill-opacity:1;fill-rule:nonzero;stroke:none"
                 d="M 342,632 142,82 H 542 L 342,632 M 8,0 286,729 H 398 L 676,0 H 8" /></g></g></g></g><text
         id="text384"
         style="font-variant:normal;font-weight:normal;font-size:10px;font-family:'DejaVu Sans';-inkscape-font-specification:DejaVuSans;writing-mode:lr-tb;fill:#000000;fill-opacity:1;fill-rule:nonzero;stroke:none"
         transform="matrix(1,0,0,-1,19.378654,2.798125)"><tspan
           id="tspan382"
           y="0"
           x="0 5.5700002 11.69 18.040001 20.82 26.030001 29.950001 32.73 38.23 41.41 48.360001 54.509998 60.860001 64.970001 71.120003 76.330002 81.540001 84.32 90.440002 96.779999 99.959999 106.08 112.42 115.6 122.58 128.14999 131.10001 137.13 140.31 146.23 151.44 154.62 157.8 164.12 167.64 171.16 173.94 179.44 182.22 188.37 194.71001 198.63 206.11 212.25999 216.17999 219.36 224.92999 231.28999 234.47 241.95">Logistic Regression on CLIP vs. EfficientNet L2 NS</tspan></text>
<path
         id="path386"
         style="fill:none;stroke:#000000;stroke-width:0.80000001;stroke-linecap:square;stroke-linejoin:miter;stroke-miterlimit:10;stroke-dasharray:none;stroke-opacity:1"
         d="M 4.113029,42.254375 H 283.11303" /><text
         id="text390"
         style="font-variant:normal;font-weight:normal;font-size:10px;font-family:'DejaVu Sans';-inkscape-font-specification:DejaVuSans;writing-mode:lr-tb;fill:#000000;fill-opacity:1;fill-rule:nonzero;stroke:none"
         transform="matrix(1,0,0,-1,85.666875,43.929052)"><tspan
           id="tspan388"
           y="0"
           x="0 2.95 12.69 18.82 25.17 31.32 38.799999 44.950001">ImageNet</tspan></text>
<text
         id="text394"
         style="font-variant:normal;font-weight:normal;font-size:10px;font-family:'DejaVu Sans';-inkscape-font-specification:DejaVuSans;writing-mode:lr-tb;fill:#1f77b4;fill-opacity:1;fill-rule:nonzero;stroke:none"
         transform="matrix(1,0,0,-1,39.767798,43.929052)"><tspan
           id="tspan392"
           y="0"
           x="0 3.6099999 9.9700003 13.15">-3.0</tspan></text>
<text
         id="text398"
         style="font-variant:normal;font-weight:normal;font-size:10px;font-family:'DejaVu Sans';-inkscape-font-specification:DejaVuSans;writing-mode:lr-tb;fill:#000000;fill-opacity:1;fill-rule:nonzero;stroke:none"
         transform="matrix(1,0,0,-1,85.666875,53.977111)"><tspan
           id="tspan396"
           y="0"
           x="0 6.98 12.55 18.870001 25.709999 32.66 39.639999 45.759998 52.099998 58.439999 62.360001">CLEVRCounts</tspan></text>
<text
         id="text402"
         style="font-variant:normal;font-weight:normal;font-size:10px;font-family:'DejaVu Sans';-inkscape-font-specification:DejaVuSans;writing-mode:lr-tb;fill:#1f77b4;fill-opacity:1;fill-rule:nonzero;stroke:none"
         transform="matrix(1,0,0,-1,43.888413,53.977111)"><tspan
           id="tspan400"
           y="0"
           x="0 3.6099999 9.9700003 13.15">-2.4</tspan></text>
<text
         id="text406"
         style="font-variant:normal;font-weight:normal;font-size:10px;font-family:'DejaVu Sans';-inkscape-font-specification:DejaVuSans;writing-mode:lr-tb;fill:#000000;fill-opacity:1;fill-rule:nonzero;stroke:none"
         transform="matrix(1,0,0,-1,85.666875,64.02517)"><tspan
           id="tspan404"
           y="0"
           x="0 6.98 9.9300003 15.68 22.52 29.469999 35.830002 42.189999">CIFAR100</tspan></text>
<text
         id="text410"
         style="font-variant:normal;font-weight:normal;font-size:10px;font-family:'DejaVu Sans';-inkscape-font-specification:DejaVuSans;writing-mode:lr-tb;fill:#1f77b4;fill-opacity:1;fill-rule:nonzero;stroke:none"
         transform="matrix(1,0,0,-1,49.396875,64.02517)"><tspan
           id="tspan408"
           y="0"
           x="0 3.6099999 9.9700003 13.15">-1.7</tspan></text>
<text
         id="text414"
         style="font-variant:normal;font-weight:normal;font-size:10px;font-family:'DejaVu Sans';-inkscape-font-specification:DejaVuSans;writing-mode:lr-tb;fill:#000000;fill-opacity:1;fill-rule:nonzero;stroke:none"
         transform="matrix(1,0,0,-1,85.666875,74.073229)"><tspan
           id="tspan412"
           y="0"
           x="0 6.0300002 12.16 16.08 21.58 27.92 34.900002 41.029999 50.77 56.919998 59.700001 65.620003 71.739998">PatchCamelyon</tspan></text>
<text
         id="text418"
         style="font-variant:normal;font-weight:normal;font-size:10px;font-family:'DejaVu Sans';-inkscape-font-specification:DejaVuSans;writing-mode:lr-tb;fill:#1f77b4;fill-opacity:1;fill-rule:nonzero;stroke:none"
         transform="matrix(1,0,0,-1,52.611076,74.073229)"><tspan
           id="tspan416"
           y="0"
           x="0 3.6099999 9.9700003 13.15">-1.2</tspan></text>
<text
         id="text422"
         style="font-variant:normal;font-weight:normal;font-size:10px;font-family:'DejaVu Sans';-inkscape-font-specification:DejaVuSans;writing-mode:lr-tb;fill:#000000;fill-opacity:1;fill-rule:nonzero;stroke:none"
         transform="matrix(1,0,0,-1,85.666875,84.121288)"><tspan
           id="tspan420"
           y="0"
           x="0 6.98 9.9300003 15.68 22.52 29.469999 35.830002">CIFAR10</tspan></text>
<text
         id="text426"
         style="font-variant:normal;font-weight:normal;font-size:10px;font-family:'DejaVu Sans';-inkscape-font-specification:DejaVuSans;writing-mode:lr-tb;fill:#1f77b4;fill-opacity:1;fill-rule:nonzero;stroke:none"
         transform="matrix(1,0,0,-1,55.406106,84.121288)"><tspan
           id="tspan424"
           y="0"
           x="0 3.6099999 9.9700003 13.15">-0.8</tspan></text>
<text
         id="text430"
         style="font-variant:normal;font-weight:normal;font-size:10px;font-family:'DejaVu Sans';-inkscape-font-specification:DejaVuSans;writing-mode:lr-tb;fill:#000000;fill-opacity:1;fill-rule:nonzero;stroke:none"
         transform="matrix(1,0,0,-1,85.666875,94.169347)"><tspan
           id="tspan428"
           y="0"
           x="0 7.8699999 13.79 17.309999 23.43 27.540001 33.889999 39.919998 46.07 49.990002">OxfordPets</tspan></text>
<text
         id="text434"
         style="font-variant:normal;font-weight:normal;font-size:10px;font-family:'DejaVu Sans';-inkscape-font-specification:DejaVuSans;writing-mode:lr-tb;fill:#1f77b4;fill-opacity:1;fill-rule:nonzero;stroke:none"
         transform="matrix(1,0,0,-1,57.790583,94.169347)"><tspan
           id="tspan432"
           y="0"
           x="0 3.6099999 9.9700003 13.15">-0.5</tspan></text>
<text
         id="text438"
         style="font-variant:normal;font-weight:normal;font-size:10px;font-family:'DejaVu Sans';-inkscape-font-specification:DejaVuSans;writing-mode:lr-tb;fill:#2ca02c;fill-opacity:1;fill-rule:nonzero;stroke:none"
         transform="matrix(1,0,0,-1,83.690625,104.21741)"><tspan
           id="tspan436"
           y="0"
           x="0 8.3800001 14.74 17.92">+0.0</tspan></text>
<text
         id="text442"
         style="font-variant:normal;font-weight:normal;font-size:10px;font-family:'DejaVu Sans';-inkscape-font-specification:DejaVuSans;writing-mode:lr-tb;fill:#000000;fill-opacity:1;fill-rule:nonzero;stroke:none"
         transform="matrix(1,0,0,-1,49.193798,104.21741)"><tspan
           id="tspan440"
           y="0"
           x="0 6.3499999 12.46 18.030001 24.389999">STL10</tspan></text>
<text
         id="text446"
         style="font-variant:normal;font-weight:normal;font-size:10px;font-family:'DejaVu Sans';-inkscape-font-specification:DejaVuSans;writing-mode:lr-tb;fill:#2ca02c;fill-opacity:1;fill-rule:nonzero;stroke:none"
         transform="matrix(1,0,0,-1,86.784142,114.26547)"><tspan
           id="tspan444"
           y="0"
           x="0 8.3800001 14.74 17.92">+0.5</tspan></text>
<text
         id="text450"
         style="font-variant:normal;font-weight:normal;font-size:10px;font-family:'DejaVu Sans';-inkscape-font-specification:DejaVuSans;writing-mode:lr-tb;fill:#000000;fill-opacity:1;fill-rule:nonzero;stroke:none"
         transform="matrix(1,0,0,-1,32.803173,114.26547)"><tspan
           id="tspan448"
           y="0"
           x="0 6.8400002 14.71 21.690001 28.049999 34.41 40.77">VOC2007</tspan></text>
<text
         id="text454"
         style="font-variant:normal;font-weight:normal;font-size:10px;font-family:'DejaVu Sans';-inkscape-font-specification:DejaVuSans;writing-mode:lr-tb;fill:#2ca02c;fill-opacity:1;fill-rule:nonzero;stroke:none"
         transform="matrix(1,0,0,-1,87.325958,124.31352)"><tspan
           id="tspan452"
           y="0"
           x="0 8.3800001 14.74 17.92">+0.5</tspan></text>
<text
         id="text458"
         style="font-variant:normal;font-weight:normal;font-size:10px;font-family:'DejaVu Sans';-inkscape-font-specification:DejaVuSans;writing-mode:lr-tb;fill:#000000;fill-opacity:1;fill-rule:nonzero;stroke:none"
         transform="matrix(1,0,0,-1,58.428173,124.31352)"><tspan
           id="tspan456"
           y="0"
           x="0 7.6999998 13.81">DTD</tspan></text>
<text
         id="text462"
         style="font-variant:normal;font-weight:normal;font-size:10px;font-family:'DejaVu Sans';-inkscape-font-specification:DejaVuSans;writing-mode:lr-tb;fill:#2ca02c;fill-opacity:1;fill-rule:nonzero;stroke:none"
         transform="matrix(1,0,0,-1,88.099183,134.36158)"><tspan
           id="tspan460"
           y="0"
           x="0 8.3800001 14.74 17.92">+0.6</tspan></text>
<text
         id="text466"
         style="font-variant:normal;font-weight:normal;font-size:10px;font-family:'DejaVu Sans';-inkscape-font-specification:DejaVuSans;writing-mode:lr-tb;fill:#000000;fill-opacity:1;fill-rule:nonzero;stroke:none"
         transform="matrix(1,0,0,-1,48.428173,134.36158)"><tspan
           id="tspan464"
           y="0"
           x="0 8.6300001 16.110001 19.059999 25.41">MNIST</tspan></text>
<text
         id="text470"
         style="font-variant:normal;font-weight:normal;font-size:10px;font-family:'DejaVu Sans';-inkscape-font-specification:DejaVuSans;writing-mode:lr-tb;fill:#2ca02c;fill-opacity:1;fill-rule:nonzero;stroke:none"
         transform="matrix(1,0,0,-1,89.673029,144.40964)"><tspan
           id="tspan468"
           y="0"
           x="0 8.3800001 14.74 17.92">+0.9</tspan></text>
<text
         id="text474"
         style="font-variant:normal;font-weight:normal;font-size:10px;font-family:'DejaVu Sans';-inkscape-font-specification:DejaVuSans;writing-mode:lr-tb;fill:#000000;fill-opacity:1;fill-rule:nonzero;stroke:none"
         transform="matrix(1,0,0,-1,37.756298,144.40964)"><tspan
           id="tspan472"
           y="0"
           x="0 6.3200002 12.66 16.77 22.889999 29.24 36.080002">EuroSAT</tspan></text>
<text
         id="text478"
         style="font-variant:normal;font-weight:normal;font-size:10px;font-family:'DejaVu Sans';-inkscape-font-specification:DejaVuSans;writing-mode:lr-tb;fill:#2ca02c;fill-opacity:1;fill-rule:nonzero;stroke:none"
         transform="matrix(1,0,0,-1,93.025787,154.4577)"><tspan
           id="tspan476"
           y="0"
           x="0 8.3800001 14.74 17.92">+1.3</tspan></text>
<text
         id="text482"
         style="font-variant:normal;font-weight:normal;font-size:10px;font-family:'DejaVu Sans';-inkscape-font-specification:DejaVuSans;writing-mode:lr-tb;fill:#000000;fill-opacity:1;fill-rule:nonzero;stroke:none"
         transform="matrix(1,0,0,-1,23.053173,154.4577)"><tspan
           id="tspan480"
           y="0"
           x="0 6.98 13.11 15.89 19.809999 25.959999 31.459999 37.799999 44.16 50.52">Caltech101</tspan></text>
<text
         id="text486"
         style="font-variant:normal;font-weight:normal;font-size:10px;font-family:'DejaVu Sans';-inkscape-font-specification:DejaVuSans;writing-mode:lr-tb;fill:#2ca02c;fill-opacity:1;fill-rule:nonzero;stroke:none"
         transform="matrix(1,0,0,-1,93.413105,164.50576)"><tspan
           id="tspan484"
           y="0"
           x="0 8.3800001 14.74 17.92">+1.4</tspan></text>
<text
         id="text490"
         style="font-variant:normal;font-weight:normal;font-size:10px;font-family:'DejaVu Sans';-inkscape-font-specification:DejaVuSans;writing-mode:lr-tb;fill:#000000;fill-opacity:1;fill-rule:nonzero;stroke:none"
         transform="matrix(1,0,0,-1,22.537548,164.50576)"><tspan
           id="tspan488"
           y="0"
           x="0 5.75 8.5299997 14.65 22.83 28.98 33.09 38.299999 44.66 51.02">Flowers102</tspan></text>
<text
         id="text494"
         style="font-variant:normal;font-weight:normal;font-size:10px;font-family:'DejaVu Sans';-inkscape-font-specification:DejaVuSans;writing-mode:lr-tb;fill:#2ca02c;fill-opacity:1;fill-rule:nonzero;stroke:none"
         transform="matrix(1,0,0,-1,93.840369,174.55382)"><tspan
           id="tspan492"
           y="0"
           x="0 8.3800001 14.74 17.92">+1.4</tspan></text>
<text
         id="text498"
         style="font-variant:normal;font-weight:normal;font-size:10px;font-family:'DejaVu Sans';-inkscape-font-specification:DejaVuSans;writing-mode:lr-tb;fill:#000000;fill-opacity:1;fill-rule:nonzero;stroke:none"
         transform="matrix(1,0,0,-1,35.818798,174.55382)"><tspan
           id="tspan496"
           y="0"
           x="0 6.8600001 9.6400003 13.75 20.1 25.309999 31.65 37.779999">Birdsnap</tspan></text>
<text
         id="text502"
         style="font-variant:normal;font-weight:normal;font-size:10px;font-family:'DejaVu Sans';-inkscape-font-specification:DejaVuSans;writing-mode:lr-tb;fill:#2ca02c;fill-opacity:1;fill-rule:nonzero;stroke:none"
         transform="matrix(1,0,0,-1,99.61939,184.60188)"><tspan
           id="tspan500"
           y="0"
           x="0 8.3800001 14.74 17.92">+2.3</tspan></text>
<text
         id="text506"
         style="font-variant:normal;font-weight:normal;font-size:10px;font-family:'DejaVu Sans';-inkscape-font-specification:DejaVuSans;writing-mode:lr-tb;fill:#000000;fill-opacity:1;fill-rule:nonzero;stroke:none"
         transform="matrix(1,0,0,-1,8.3187981,184.60188)"><tspan
           id="tspan504"
           y="0"
           x="0 6.5599999 9.5100002 15.62 21.73 24.68 27.860001 35.560001 38.34 43.549999 47.470001 53.599998 59.939999 65.440002">KITTI Distance</tspan></text>
<text
         id="text510"
         style="font-variant:normal;font-weight:normal;font-size:10px;font-family:'DejaVu Sans';-inkscape-font-specification:DejaVuSans;writing-mode:lr-tb;fill:#2ca02c;fill-opacity:1;fill-rule:nonzero;stroke:none"
         transform="matrix(1,0,0,-1,105.73951,194.64994)"><tspan
           id="tspan508"
           y="0"
           x="0 8.3800001 14.74 17.92">+3.1</tspan></text>
<text
         id="text514"
         style="font-variant:normal;font-weight:normal;font-size:10px;font-family:'DejaVu Sans';-inkscape-font-specification:DejaVuSans;writing-mode:lr-tb;fill:#000000;fill-opacity:1;fill-rule:nonzero;stroke:none"
         transform="matrix(1,0,0,-1,40.803173,194.64994)"><tspan
           id="tspan512"
           y="0"
           x="0 7.3200002 14.3 20.049999 26.41 32.77">UCF101</tspan></text>
<text
         id="text518"
         style="font-variant:normal;font-weight:normal;font-size:10px;font-family:'DejaVu Sans';-inkscape-font-specification:DejaVuSans;writing-mode:lr-tb;fill:#2ca02c;fill-opacity:1;fill-rule:nonzero;stroke:none"
         transform="matrix(1,0,0,-1,106.2192,204.698)"><tspan
           id="tspan516"
           y="0"
           x="0 8.3800001 14.74 17.92">+3.2</tspan></text>
<text
         id="text522"
         style="font-variant:normal;font-weight:normal;font-size:10px;font-family:'DejaVu Sans';-inkscape-font-specification:DejaVuSans;writing-mode:lr-tb;fill:#000000;fill-opacity:1;fill-rule:nonzero;stroke:none"
         transform="matrix(1,0,0,-1,15.709423,204.698)"><tspan
           id="tspan520"
           y="0"
           x="0 5.75 13.5 20.34 27.32 34.16 36.939999 41.049999 46.549999 50.66 56.790001 60.310001">FGVCAircraft</tspan></text>
<text
         id="text526"
         style="font-variant:normal;font-weight:normal;font-size:10px;font-family:'DejaVu Sans';-inkscape-font-specification:DejaVuSans;writing-mode:lr-tb;fill:#2ca02c;fill-opacity:1;fill-rule:nonzero;stroke:none"
         transform="matrix(1,0,0,-1,111.56946,214.74606)"><tspan
           id="tspan524"
           y="0"
           x="0 8.3800001 14.74 17.92">+3.9</tspan></text>
<text
         id="text530"
         style="font-variant:normal;font-weight:normal;font-size:10px;font-family:'DejaVu Sans';-inkscape-font-specification:DejaVuSans;writing-mode:lr-tb;fill:#000000;fill-opacity:1;fill-rule:nonzero;stroke:none"
         transform="matrix(1,0,0,-1,36.521923,214.74606)"><tspan
           id="tspan528"
           y="0"
           x="0 5.75 11.87 17.99 24.34 30.700001 37.060001">Food101</tspan></text>
<text
         id="text534"
         style="font-variant:normal;font-weight:normal;font-size:10px;font-family:'DejaVu Sans';-inkscape-font-specification:DejaVuSans;writing-mode:lr-tb;fill:#2ca02c;fill-opacity:1;fill-rule:nonzero;stroke:none"
         transform="matrix(1,0,0,-1,116.01102,224.79412)"><tspan
           id="tspan532"
           y="0"
           x="0 8.3800001 14.74 17.92">+4.5</tspan></text>
<text
         id="text538"
         style="font-variant:normal;font-weight:normal;font-size:10px;font-family:'DejaVu Sans';-inkscape-font-specification:DejaVuSans;writing-mode:lr-tb;fill:#000000;fill-opacity:1;fill-rule:nonzero;stroke:none"
         transform="matrix(1,0,0,-1,35.490673,224.79412)"><tspan
           id="tspan536"
           y="0"
           x="0 5.75 12.07 19.02 25.379999 31.74 38.099998">FER2013</tspan></text>
<text
         id="text542"
         style="font-variant:normal;font-weight:normal;font-size:10px;font-family:'DejaVu Sans';-inkscape-font-specification:DejaVuSans;writing-mode:lr-tb;fill:#2ca02c;fill-opacity:1;fill-rule:nonzero;stroke:none"
         transform="matrix(1,0,0,-1,119.68739,234.84218)"><tspan
           id="tspan540"
           y="0"
           x="0 8.3800001 14.74 17.92">+5.1</tspan></text>
<text
         id="text546"
         style="font-variant:normal;font-weight:normal;font-size:10px;font-family:'DejaVu Sans';-inkscape-font-specification:DejaVuSans;writing-mode:lr-tb;fill:#000000;fill-opacity:1;fill-rule:nonzero;stroke:none"
         transform="matrix(1,0,0,-1,31.334423,234.84218)"><tspan
           id="tspan544"
           y="0"
           x="0 6.9499998 13.27 19.620001 22.57 28.92 35.900002 42.259998">RESISC45</tspan></text>
<text
         id="text550"
         style="font-variant:normal;font-weight:normal;font-size:10px;font-family:'DejaVu Sans';-inkscape-font-specification:DejaVuSans;writing-mode:lr-tb;fill:#2ca02c;fill-opacity:1;fill-rule:nonzero;stroke:none"
         transform="matrix(1,0,0,-1,128.14615,244.89023)"><tspan
           id="tspan548"
           y="0"
           x="0 8.3800001 14.74 17.92">+6.2</tspan></text>
<text
         id="text554"
         style="font-variant:normal;font-weight:normal;font-size:10px;font-family:'DejaVu Sans';-inkscape-font-specification:DejaVuSans;writing-mode:lr-tb;fill:#000000;fill-opacity:1;fill-rule:nonzero;stroke:none"
         transform="matrix(1,0,0,-1,21.600048,244.89023)"><tspan
           id="tspan552"
           y="0"
           x="0 6.5599999 9.3400002 15.68 21.83 25.75 28.530001 34.029999 39.240002 45.599998 51.959999">Kinetics700</tspan></text>
<text
         id="text558"
         style="font-variant:normal;font-weight:normal;font-size:10px;font-family:'DejaVu Sans';-inkscape-font-specification:DejaVuSans;writing-mode:lr-tb;fill:#2ca02c;fill-opacity:1;fill-rule:nonzero;stroke:none"
         transform="matrix(1,0,0,-1,130.19191,254.93829)"><tspan
           id="tspan556"
           y="0"
           x="0 8.3800001 14.74 17.92">+6.5</tspan></text>
<text
         id="text562"
         style="font-variant:normal;font-weight:normal;font-size:10px;font-family:'DejaVu Sans';-inkscape-font-specification:DejaVuSans;writing-mode:lr-tb;fill:#000000;fill-opacity:1;fill-rule:nonzero;stroke:none"
         transform="matrix(1,0,0,-1,39.709423,254.93829)"><tspan
           id="tspan560"
           y="0"
           x="0 6.3499999 13.67 21.15 27.51 33.869999">SUN397</tspan></text>
<text
         id="text566"
         style="font-variant:normal;font-weight:normal;font-size:10px;font-family:'DejaVu Sans';-inkscape-font-specification:DejaVuSans;writing-mode:lr-tb;fill:#2ca02c;fill-opacity:1;fill-rule:nonzero;stroke:none"
         transform="matrix(1,0,0,-1,188.59107,264.98635)"><tspan
           id="tspan564"
           y="0"
           x="0 8.3800001 14.74 21.1 24.280001">+14.7</tspan></text>
<text
         id="text570"
         style="font-variant:normal;font-weight:normal;font-size:10px;font-family:'DejaVu Sans';-inkscape-font-specification:DejaVuSans;writing-mode:lr-tb;fill:#000000;fill-opacity:1;fill-rule:nonzero;stroke:none"
         transform="matrix(1,0,0,-1,45.928173,264.98635)"><tspan
           id="tspan568"
           y="0"
           x="0 7.75 13.86 20.209999 27.16">GTSRB</tspan></text>
<text
         id="text574"
         style="font-variant:normal;font-weight:normal;font-size:10px;font-family:'DejaVu Sans';-inkscape-font-specification:DejaVuSans;writing-mode:lr-tb;fill:#2ca02c;fill-opacity:1;fill-rule:nonzero;stroke:none"
         transform="matrix(1,0,0,-1,197.57657,275.03441)"><tspan
           id="tspan572"
           y="0"
           x="0 8.3800001 14.74 21.1 24.280001">+15.9</tspan></text>
<text
         id="text578"
         style="font-variant:normal;font-weight:normal;font-size:10px;font-family:'DejaVu Sans';-inkscape-font-specification:DejaVuSans;writing-mode:lr-tb;fill:#000000;fill-opacity:1;fill-rule:nonzero;stroke:none"
         transform="matrix(1,0,0,-1,14.678173,275.03441)"><tspan
           id="tspan576"
           y="0"
           x="0 6.3499999 10.27 16.4 22.74 26.26 32.380001 36.490002 42.84 49.82 55.950001 60.060001">StanfordCars</tspan></text>
<text
         id="text582"
         style="font-variant:normal;font-weight:normal;font-size:10px;font-family:'DejaVu Sans';-inkscape-font-specification:DejaVuSans;writing-mode:lr-tb;fill:#2ca02c;fill-opacity:1;fill-rule:nonzero;stroke:none"
         transform="matrix(1,0,0,-1,218.36786,285.08247)"><tspan
           id="tspan580"
           y="0"
           x="0 8.3800001 14.74 21.1 24.280001">+18.8</tspan></text>
<text
         id="text586"
         style="font-variant:normal;font-weight:normal;font-size:10px;font-family:'DejaVu Sans';-inkscape-font-specification:DejaVuSans;writing-mode:lr-tb;fill:#000000;fill-opacity:1;fill-rule:nonzero;stroke:none"
         transform="matrix(1,0,0,-1,7.6781731,285.08247)"><tspan
           id="tspan584"
           y="0"
           x="0 7.52 13.65 17.57 23.719999 27.24 33.580002 36.360001 44.990002 51.139999 60.880001 67.029999">HatefulMemes</tspan></text>
<text
         id="text590"
         style="font-variant:normal;font-weight:normal;font-size:10px;font-family:'DejaVu Sans';-inkscape-font-specification:DejaVuSans;writing-mode:lr-tb;fill:#2ca02c;fill-opacity:1;fill-rule:nonzero;stroke:none"
         transform="matrix(1,0,0,-1,245.65196,295.13053)"><tspan
           id="tspan588"
           y="0"
           x="0 8.3800001 14.74 21.1 24.280001">+22.7</tspan></text>
<text
         id="text594"
         style="font-variant:normal;font-weight:normal;font-size:10px;font-family:'DejaVu Sans';-inkscape-font-specification:DejaVuSans;writing-mode:lr-tb;fill:#000000;fill-opacity:1;fill-rule:nonzero;stroke:none"
         transform="matrix(1,0,0,-1,21.115673,295.13053)"><tspan
           id="tspan592"
           y="0"
           x="0 6.98 13.1 19.440001 25.780001 29.700001 33.810001 39.73 46.09 52.450001">Country211</tspan></text>
<text
         id="text598"
         style="font-variant:normal;font-weight:normal;font-size:10px;font-family:'DejaVu Sans';-inkscape-font-specification:DejaVuSans;writing-mode:lr-tb;fill:#2ca02c;fill-opacity:1;fill-rule:nonzero;stroke:none"
         transform="matrix(1,0,0,-1,252.05449,305.17859)"><tspan
           id="tspan596"
           y="0"
           x="0 8.3800001 14.74 21.1 24.280001">+23.6</tspan></text>
<text
         id="text602"
         style="font-variant:normal;font-weight:normal;font-size:10px;font-family:'DejaVu Sans';-inkscape-font-specification:DejaVuSans;writing-mode:lr-tb;fill:#000000;fill-opacity:1;fill-rule:nonzero;stroke:none"
         transform="matrix(1,0,0,-1,54.787548,305.17859)"><tspan
           id="tspan600"
           y="0"
           x="0 6.3499999 12.7 18.809999">SST2</tspan></text>
</g></g></svg>